<?xml version="1.0" encoding="utf-8"?>
<!-- Generator: Adobe Illustrator 23.0.0, SVG Export Plug-In . SVG Version: 6.00 Build 0)  -->
<svg version="1.1" id="图层_1" xmlns="http://www.w3.org/2000/svg" xmlns:xlink="http://www.w3.org/1999/xlink" x="0px" y="0px"
	 viewBox="0 0 525.5 185.6" style="enable-background:new 0 0 525.5 185.6;" xml:space="preserve">
<style type="text/css">
	.st0{fill-rule:evenodd;clip-rule:evenodd;fill:#FFFFFF;}
</style>
<path class="st0" d="M64,180.1c-7.7-1.3-13-6.2-16.6-12.6c-2.8-4.9-4.8-7.2-8.4-0.9c-1,1.7-2.1,4.4-4.7,3.1c-3.3-1.7-1-4.4,0.1-6.2
	c4.6-7.9,7.8-16.4,11.5-24.6c1.7-3.7,2.6-6.6-2-9.3c-3.8-2.3-6.1-7-4.5-11.1s4.4-8.4,9.8-9.1c1.8-0.2,3.7-0.5,5.5-1.2
	c3.7-1.4,4.4-5.2,4-8c-0.5-3.9-4.4-2-6.6-1.6c-11.2,2.1-22.4,4.6-33.6,6.8c-2.6,0.5-5.3,1-7.9,0.9c-6.4-0.1-9.7-4.1-10.5-10
	c-0.8-6.2,2.7-9.6,8.5-10.5c16.3-2.6,32.7-5.2,49.1-7.2c5.6-0.7,9-2.4,9.5-8.3c0.1-1.6,0.6-3.1,1-4.7c3.5-13.5,3.5-13.5-11-13.7
	c-2.4,0-4.8,0-7.2,0C34.7,51.7,26.2,44,25.3,29.6C24.4,16.1,33.1,5.1,46.9,3.5c19.9-2.2,39.6-0.8,58,8
	c22.7,10.9,35.9,28.9,36.9,54.6c0.2,5.6,2.1,7,7,6.6c3.2-0.2,6.4-0.2,9.6,0.1c2.8,0.3,5.2,1.7,5.1,5c0,3.3-2.5,5.6-5.1,5.1
	c-15.3-2.6-22.9,6.2-30,17.8c-6.5,10.7-16.1,17.6-29.2,20.1C86.5,123.3,74.3,128,61,132c5.9,3.4,9.9,2.4,15.6,0.3
	c18.7-6.7,37.9-6.9,55.4,4.1c9.6,6.1,10.2,17.2,1.8,26.3c-17,18.6-38,25.5-62.9,20.4c2.7-3.5,7,0.7,10.8-3.1
	c-11.8-2.9-22.2-7.5-30.4-16.1c-0.3-0.3-0.6-0.6-0.9-0.9c0,0.6,0,1.2,0.1,1.8C52.5,172.4,59.7,175,64,180.1z M106.2,175.5
	c8.1-1.2,16.6-5.9,22-14.9c3.1-5.2,4.3-11.3,0.6-16.8c-3.5-5.1-9.2-4.6-14.6-4.2c-11.9,1-22.4,7.1-34,9.1c-2.3,0.4-2,1.9-1.8,3.6
	C79.9,163.7,92.9,175.6,106.2,175.5z M122.1,72.5c-5.5-8.7-8-10.6-17.2-14.1c-15.9-5.9-17.3-5-20.5,11.5c-0.7,3.7-0.2,5,3.5,4.7
	C98.9,74,110,73.3,122.1,72.5z M106.7,99.7c7.1,0.3,14.2,1.4,16.3-7.5c0.5-2,1.1-4.2-2-3.7c-14,2.1-27.9,4.3-41.8,6.6
	c-3.1,0.5-4.2,3.7-3.9,6.2c0.5,3.6,3.8,1.8,5.8,1.6C89.8,101.9,98.5,100.7,106.7,99.7z M36.2,21.8c-0.8,1.7-1.3,3.4-1.7,4.9
	c-0.9,3.8-0.6,7.1,0.9,9.7c1.5,2.7,4.4,4.5,8.3,5.4C38.2,36.2,37.5,29.5,36.2,21.8z M11.6,101.7c-2.3-3.1-4.9-5.5-6-9.8
	C3.2,100,3.8,101,11.6,101.7z"/>
<path class="st0" d="M406.2,96.9c2.3-7.6,10-6.3,15.2-9.2c0.8-2.1-0.9-2.8-2.1-3.8C403,69.5,397.8,51.5,403,30.5
	c2.2-9,7.8-15.8,16.4-18.2c21.4-5.8,42.9-10.6,65.1-3.5c20,6.3,32.1,21.3,32,40.8c-0.1,16.3-8.6,28.6-24.7,34.4
	c-18.6,6.7-37.4,12.6-57.8,8.1c1.8,7.8,5.3,10.1,13.1,10c21.5-0.2,42.8,2.4,61.5,14.5c7.5,4.8,13.9,10.8,16.1,20
	c3.3,14.1-3.7,24.7-11.9,34.7c-2.1,2.6-4.8,8.5-7.8,6c-3.7-3.2,2.4-5.8,4.2-8.6c2.6-4,5.7-7.7,7.7-12.2c6.5-14.8-0.1-26.4-16.3-27.4
	c-16.1-1-31.9,2.2-47.6,5.2c-1.4,0.3-3.4,0.5-3.8,2.3c-0.3,2,1.7,2.4,3,3.2c5.7,3.6,6.3,7.9,2.5,13.4c-3.5,5-6.3,10.5-9.9,15.5
	c-2.8,3.9-6.3,8-11.8,5.5c-6.3-2.7-4.2-8.3-2.4-12.4c3.8-8.7,8.5-17,16.8-25.7c-9.2,1.6-16.3,0.3-21.1,8.4
	c-5.2,8.7-18.4,10.6-27.9,5.1c-8.9-5.1-12.4-14.8-8.5-23.6c0.3,1.2,0.4,3.3,1.1,3.5c2.7,0.9,3-1.7,3.3-3.3
	c1.5-8.9,5.8-16.4,11.1-23.5C406.6,101.5,409.3,99.3,406.2,96.9z M492.7,44.1c5.2,0.5,5.4,4.5,5.3,8.2s-2.6,5.6-6.2,6.2
	c-10.5,1.8-21,3.4-31.5,5.5c-2.5,0.5-6.8-0.9-7.3,3.1c-0.4,3.2,2,6,4.7,8c1.5,1.1,3.1,2.2,4.7,2.9c19.1,8.9,42.7-2.4,47.6-22.8
	c5.1-21.4-10-36.6-31.5-31.7c-6,1.4-11.4,4.4-17.2,6.4c-6.4,2.3-6.3,7.5-5,11.7c1.4,4.5,6,2,9.4,1.3c9.1-1.9,18.3-3.1,27.1,1.3
	c-7.1,0.1-14.3-0.9-21.2,1.3c4.9,2.4,10,1.6,14.9,1.5C489,47,492.3,48.4,492.7,44.1z M410.1,28.3c-2.1,16.2,0.2,30.5,8.3,43.8
	c1.2,2,2.9,5.8,5.8,3.8c2.4-1.6-0.5-4.3-1.6-6.2c-5.9-9.9-8.6-20.5-9-31.9C413.7,34.9,414.4,31.4,410.1,28.3z"/>
<path class="st0" d="M269.8,179.4c13.8-10,14.5-23.7,12.5-38.4c-0.9-6.4-3.4-7.7-9.6-6.4c-13.2,2.7-26.4,2.8-39.2-2.6
	c-25.8-10.9-39.8-39.2-33.4-68.1c0.7-3.2,1.7-6.4,0.7-9.5c-4.6-13.8,5.6-25.9,16.2-30.1c17.2-6.8,35.2-10.8,53.4-13.9
	c9.2-1.5,18.5-2.6,27.7-4.1c13.9-2.2,24.6,5.7,27.5,20.5c2.8,14-5.3,27.3-18.5,30c-18.7,3.9-37.5,7.7-56.3,11.1
	c-3.9,0.7-5.5,2.4-6.3,5.8c-1.6,7-3.4,13.9-4.9,21c-4.3,20.8,15.1,38.8,35.3,32.9c3.2-0.9,4.2-2.3,3.7-5.7
	c-1.3-8.2-2.2-16.4-3.2-24.6c-1.2-9.4,4.5-16.8,13.6-17.2c6.2-0.2,11.1,2,11.7,9.2s1.3,14.4,1.3,21.5c0,6.9,3,7.7,8.4,5.1
	c5.3-2.6,10.6-5.1,15.8-7.8c3.2-1.6,6.8-2.5,8.4,0.9c1.8,3.9-2.7,4.4-5.1,5.5c-6.5,3.1-12.9,6.5-19.8,8.5s-8.8,6.4-9.6,12.6
	c-2.3,18.2-12.1,32.1-25.7,43.7c-0.7,0.6-1.8,0.6-2.8,0.9C271,180.2,270.4,179.8,269.8,179.4z M212.4,100.4
	c-2.2-14.7-3.4-29.3-3.8-44.1C203.6,71.6,206.2,86.2,212.4,100.4z M284.6,93.6c-0.3-1.8,0-4.9-2.6-4.8c-2.9,0.2-2.5,3.4-2.6,5.7
	c-0.1,2-0.2,4.7,2.9,4.3C285.1,98.5,284.3,95.7,284.6,93.6z"/>
<path class="st0" d="M353.2,150c0,11.5-6.5,20.7-16.7,23.5c-8.3,2.3-16.3-1.5-19.7-9.4c-4.3-10.1-1-25.2,7.3-32.5
	c5.1-4.5,11-5.5,17.2-3.2c7,2.5,9.9,8.5,11.6,15.2C353.3,145.6,353.1,147.8,353.2,150z M325.3,142.6c-2.6,4.9-3.7,10-0.1,15.8
	C328.9,152.8,328,147.8,325.3,142.6z"/>
<path class="st0" d="M205.2,157.6c0-11.6,8.3-20.6,19-20.4c11.7,0.2,23.1,12.2,23.2,24.3c0.1,11.3-8.5,19.6-20.5,19.8
	C214.6,181.4,205.2,171.2,205.2,157.6z M224.3,173.7c-5.8-5.5-8.8-12-13.5-19.7C211.1,168.4,214.5,173.3,224.3,173.7z"/>
<path class="st0" d="M489.3,148.7c-4.2,10.7-9.4,21.7-17,31.4c-2.1,2.7-4.3,2.1-6.9,0.4c-4.2-2.6-4.7-7.1-3-10.1
	c4.9-9.1,10.8-17.7,16.5-26.4c1.8-2.8,4.8-3.1,7.9-2.1C489.7,143,489.6,145.5,489.3,148.7z"/>
<path class="st0" d="M406.2,96.9c3.2,2.4,0.4,4.5-0.7,6c-5.3,7.1-9.5,14.6-11.1,23.5c-0.3,1.6-0.6,4.2-3.3,3.3
	c-0.7-0.2-0.7-2.3-1.1-3.5C391.7,114.4,396.7,104.4,406.2,96.9z"/>
<path class="st0" d="M492.7,44.1c-0.4,4.3-3.7,2.9-6.1,3c-5,0.1-10,0.9-14.9-1.5c6.9-2.2,14.1-1.2,21.2-1.3
	C492.8,44.3,492.7,44.1,492.7,44.1z"/>
</svg>
