<svg xmlns="http://www.w3.org/2000/svg" viewBox="0 0 60.88 83.75"><defs><style>.cls-1{opacity:0.3;}.cls-2{fill:#020005;}.cls-3{fill:#ffb657;}.cls-4{fill:#0aa58e;}.cls-5{fill:#512f09;}.cls-6{fill:#004cb9;}.cls-7{fill:#5c0c00;}.cls-8{fill:#731000;}.cls-9{fill:#9e0d0d;}.cls-10{fill:#fff;}</style></defs><title>咨客</title><g id="图层_2" data-name="图层 2"><g id="收银"><g class="cls-1"><ellipse class="cls-2" cx="14.14" cy="69.44" rx="14.14" ry="8.51"/></g><path class="cls-3" d="M28.63,26.82s1.69.26,2,.38a1.33,1.33,0,0,1,.56.52s.78.12.95.47-1,2-1.32,2.25-3.14-.69-3.14-.69S27.15,27,28.63,26.82Z"/><path class="cls-3" d="M16.34,11.72A2.77,2.77,0,0,1,18.85,14a66.51,66.51,0,0,0,1.67,8.45c.47,1.6,9,4.49,9,4.49s.92,2.67,0,3.32c0,0-11.5-2-12.27-5.44-.25-1.13-.45-2-.51-2.35C15,14.11,15.11,13,16.34,11.72Z"/><path class="cls-4" d="M15.08,14a38.09,38.09,0,0,0,.54,5.84s4.49-.22,5.26-1.12c0,0-.64-6.26-3.23-7.25C16.75,11.08,15.05,12.19,15.08,14Z"/><path class="cls-5" d="M14.55,62.75s-.41,3-.41,3.31,5.78,4.17,7.2,3.23c1-.67-3.69-5.47-3.69-5.47ZM8.16,66.44s-.41,3-.41,3.31,5.35,4.83,6.75,3.85-3.23-6.08-3.23-6.08Z"/><path class="cls-6" d="M18.66,34.08l.1,30.27s.07.89-2.2.89-2.39-1.12-2.39-1.12l-.62-21.94h-.11L12.25,68.1s.14.7-2.15.7-2.39-1.13-2.39-1.13L7.49,35.13Z"/><path class="cls-4" d="M19.53,33.67s-.22-4.9-.3-9.59c-.06-3.93.31-7.82.3-8.8,0-2.43-1.51-4.15-2.36-4.16a22.48,22.48,0,0,0-11,4.57S7,36.09,7.46,36.61C8.64,37.84,17.82,38.19,19.53,33.67Z"/><path class="cls-4" d="M14.69,12.39s1.68.49,1.87,4.38c.08,1.69,1.14,17.34,1.25,19a10.65,10.65,0,0,1-5,1.57C12.39,21,9.77,14.84,10.05,13.83a2.81,2.81,0,0,1,.3-.74l1.28-.56Z"/><path class="cls-3" d="M14.85,10s.31,2.48.47,3.85c.11,1-1.62,1.66-2.91,1.23a3.28,3.28,0,0,1-1.84-1.44,21.92,21.92,0,0,0,.58-5.3Z"/><path class="cls-3" d="M18.2,7.46s-.86,4.59-2,5.27-4.42-.56-5.87-4.1C9.09,5.67,10.4.35,13.8.21c4-.14,5.13,3.14,4.4,7.25Z"/><path class="cls-7" d="M9.74,3.54C10,2.41,11.69-.31,14.1,0a6.08,6.08,0,0,1,3,1.12A4.71,4.71,0,0,1,18.75,3.8a2.78,2.78,0,0,1-1,2.86c-.66.45-3.1-1.38-3.86-1.6C13.4,4.92,12.15,8,11.82,9.55a8.5,8.5,0,0,0-.54-3.39c-.38,1,.05,2.94,0,4.15-.88-1.19-2.44-2.79-1.5-6.77Z"/><path class="cls-8" d="M11.83,8.27s-.35-2.57-1.08-2.61c-.54,0-.74,1.09-.36,1.94a5.33,5.33,0,0,0,1.44,1.65v-1Z"/><path class="cls-3" d="M15.65,33.63s1.58.66,1.86.84a1.38,1.38,0,0,1,.43.65s.73.29.82.68-1.4,1.72-1.77,1.86-2.9-1.41-2.9-1.41S14.16,33.46,15.65,33.63Z"/><path class="cls-3" d="M6.17,15.69a2.85,2.85,0,0,1,1.95,2.78,68.32,68.32,0,0,0-.21,8.61c.11,1.68,7.91,6.62,7.91,6.62s.15,2.67-.88,3.09c0,0-10.76-4.62-10.76-8.2V26.18c.15-8.5.51-9.56,2-10.49Z"/><path class="cls-4" d="M4.74,17.23A37.53,37.53,0,0,0,3.54,23s4.34,1.24,5.33.63c0,0,1.26-6.18-.92-7.94-.77-.63-2.72-.12-3.21,1.57Z"/><g class="cls-1"><ellipse class="cls-2" cx="46.74" cy="75.24" rx="14.14" ry="8.51"/></g><path d="M48.33,26.69v25.4l-2.47,1.49V28.18Z"/><path d="M53.92,29.8c.25-.15.22-.41-.07-.56l-1.76-1.07a1.08,1.08,0,0,0-1,0c-.25.16-.22.42.07.57l1.77,1.06A1,1,0,0,0,53.92,29.8Z"/><path d="M40.49,37.91c.25-.15.22-.42-.07-.59l-1.77-1.07a1.06,1.06,0,0,0-1,0c-.25.16-.22.42.07.57l1.77,1.06a1,1,0,0,0,1,.07Z"/><path class="cls-3" d="M38.06,35.57c0-.22-1.58-.78-1.67-.81-.32-.13-1.62-.76-1.86-.57s-1.78,1.46-1.78,1.75a4.26,4.26,0,0,0,.33,1.12c.49.41.76.18,1,.29l2.42.87a25.69,25.69,0,0,0,1.53-2.65Z"/><path class="cls-3" d="M46.55,31.78c-2,4.29-8.71,3.59-8.71,3.59a5.46,5.46,0,0,1-1.44,2.81S50,43.92,53,24.6c-.14-3.23-2-2.93-2.6-2.32-1.19,1.14-1.89,5.28-3.82,9.5Z"/><path d="M47.59,77.65v2.44a1.4,1.4,0,0,1-1.54.49c-1-.3-4.51-2.21-4.25-2.81.63-1.43,2.15-.46,4.1-.31C47,77.55,47.59,77.65,47.59,77.65Zm5.33-3.14V77a1.4,1.4,0,0,1-1.54.49c-1-.3-4.61-2.24-4.26-2.8.88-1.38,2.17-.47,4.1-.31C52.29,74.42,52.92,74.51,52.92,74.51Z"/><path class="cls-3" d="M44.39,46.14l1,32a1.46,1.46,0,0,0,1.13.65,1.12,1.12,0,0,0,1.1-.53,54,54,0,0,0,.21-12.57s1.33-5.13,2.06-9.06l.54,18.23a1.55,1.55,0,0,0,1.15.64A1.09,1.09,0,0,0,52.61,75a54,54,0,0,0,.21-12.57s2.28-9,2.45-12.21A19.8,19.8,0,0,0,54,42.13Z"/><path class="cls-3" d="M47.93,8.94c3.47.16,5,5.5,3.8,8.58s-6.63,4.37-7.82,3.66-1.57-5-1.57-5c-.76-4.26,1.54-7.41,5.59-7.24Z"/><path class="cls-3" d="M46.23,19.86a35,35,0,0,1,1.07,4.3,3,3,0,0,0,4.19-1.69l-1.34-4.23s-4.25,1.07-3.92,1.62Z"/><path class="cls-9" d="M43.26,17c.87,1.52,2.07,2.24,2.9,3.81C46.85,25.47,50.4,34,52.5,35c1.56-1.17,4.84-1.19,5.06-2.75.64-4.17-2.69-10.31-3.22-15-.4-3.43-3-10.26-9.15-7.86A4.31,4.31,0,0,0,42.85,11c-1.58,2.69-.54,4.35.41,6Z"/><path class="cls-3" d="M33.64,41.79c-.06-.22-1.72-.36-1.82-.37-.34,0-1.74-.34-1.93-.1s-1.4,1.86-1.33,2.13a3.66,3.66,0,0,0,.58,1c.54.28.78,0,1.07,0s2.55.24,2.55.24a26.89,26.89,0,0,0,.88-2.94Z"/><path class="cls-3" d="M41,36c-.92,4.67-7.63,5.67-7.63,5.67a5.5,5.5,0,0,1-.75,3.1S47.15,46.9,45.56,27.43c-.87-3.11-2.58-2.36-3.05-1.62-.88,1.4-.6,5.59-1.51,10.17Z"/><polygon points="46.56 22.8 43.21 25.25 43.99 25.16 44.69 25.66 45.31 26.69 45.56 27.43 45.66 28.97 45.66 31.61 45.31 34.7 44.88 36.52 44.46 40.71 44.21 43.53 44.36 44.51 44.36 45.11 43.99 46.51 43.42 50.6 42.88 55.05 42.33 58.49 42.16 61.04 43.43 61.45 44.54 61.8 46.56 62.12 47.82 62.12 49.5 62.12 51.49 62.12 53.75 62.12 55.53 61.87 56.62 61.63 57.31 61.4 57.52 61.05 57.64 60.84 56.72 54.8 56.41 52.23 56.28 49.76 56.01 47.63 55.44 45.66 55.09 44.27 54.89 43.23 54.89 42.46 54.94 41.23 55.04 40.14 54.64 38.45 54.26 36.53 54.04 34.95 54.04 34.21 52.5 34.95 51.49 34.06 50.64 33.05 49.84 31.44 49.19 29.91 48.44 28.39 47.52 26.17 46.88 24.19 46.56 22.8"/><polygon class="cls-10" points="43.21 25.25 42.51 25.81 42.19 26.38 41.8 29.33 43.53 30.22 44.69 30.77 45.66 31.2 45.56 27.43 45.31 26.69 44.69 25.66 43.99 25.16 43.21 25.25"/><polygon class="cls-10" points="44.36 45.11 44.69 43.59 47.89 43.59 49.9 43.33 52.37 42.98 53.99 42.73 54.89 42.46 54.89 43.23 51.94 44.32 49.17 44.73 46.5 45.11 44.36 45.11"/><polygon class="cls-10" points="44.21 43.53 44.69 43.59 44.36 45.11 44.21 43.53"/></g></g></svg>