<?xml version="1.0" encoding="utf-8"?>
<!-- Generator: Adobe Illustrator 23.0.0, SVG Export Plug-In . SVG Version: 6.00 Build 0)  -->
<svg version="1.1" id="图层_1" xmlns="http://www.w3.org/2000/svg" xmlns:xlink="http://www.w3.org/1999/xlink" x="0px" y="0px"
	 viewBox="0 0 80.6 76.6" style="enable-background:new 0 0 80.6 76.6;" xml:space="preserve">
<style type="text/css">
	.st0{opacity:0.3;}
	.st1{fill:#020005;}
	.st2{fill:#884D01;}
	.st3{fill:#579DCE;}
	.st4{fill:#A4D2FF;}
	.st5{fill:#2A597F;}
	.st6{fill:#FFB657;}
	.st7{fill:#D13B3B;}
	.st8{fill:#E0E0E2;}
	.st9{fill:#021726;}
	.st10{fill:#042947;}
	.st11{fill:#F95858;}
	.st12{fill:#FEC377;}
	.st13{fill:#5B4D3C;}
	.st14{fill:#AAAAAF;}
	.st15{fill:#C2C2C2;}
	.st16{fill:#FFFFFF;}
	.st17{fill:#E1E0E2;}
	.st18{fill:#F7F7F7;}
	.st19{fill:#36B2A3;}
	.st20{fill:#47D6C8;}
	.st21{fill:#7988D3;}
	.st22{fill:#F49B2B;}
	.st23{fill:#EFB143;}
	.st24{fill:#ED2651;}
	.st25{fill:#F7DD6D;}
</style>
<title>客房</title>
<g>
	<g id="房间">
		<g id="e16755a0-61f5-4c56-b2c4-3d1a8940b679">
			<g class="st0">
				
					<ellipse transform="matrix(0.9986 -5.251039e-02 5.251039e-02 0.9986 -3.1604 2.773)" class="st1" cx="51.2" cy="61.5" rx="8.2" ry="4.7"/>
			</g>
			<g class="st0">
				<path class="st1" d="M0.9,52.5l50.7-29.2c1.1-0.6,2.5-0.7,3.7-0.2l23.7,13.7c1,0.5,0.8,1.5-0.3,2.1l-7.3,4.2
					c0.8,0.3,1.6,0.6,2.3,1c4.3,2.5,4.3,6.5,0,9c-4.9,2.5-10.6,2.5-15.5,0c-0.6-0.4-1.2-0.8-1.8-1.3L28,68.1
					c-1.1,0.6-2.5,0.7-3.7,0.2L0.6,54.6C-0.3,54-0.2,53.1,0.9,52.5z"/>
			</g>
			<path class="st2" d="M28.1,67l-0.3,0c-0.3,0-0.6-0.2-0.6-0.5l-0.7-5c0-0.3,0.2-0.6,0.5-0.6l0.3,0c0.3,0,0.6,0.2,0.6,0.5l0.7,5
				C28.7,66.7,28.4,67,28.1,67z"/>
			<path class="st2" d="M77.8,38.1l-0.3,0.2c-0.3,0.2-0.6,0.1-0.8-0.2l-2.5-4.4c-0.2-0.3-0.1-0.6,0.2-0.8l0.3-0.2
				c0.3-0.2,0.6-0.1,0.8,0.2l2.5,4.4C78.2,37.6,78.1,38,77.8,38.1z"/>
			<path class="st2" d="M4.1,46.4l0.7,1l48.3-27.9c1.1-0.6,2.5-0.7,3.7-0.1l18.6,10.8l2.8-2v4.1c-0.1,0.5-0.4,1-0.9,1.2L26.5,62.7
				c-1.1,0.6-2.5,0.7-3.7,0.2l-20.7-12c-0.4-0.2-0.6-0.5-0.6-0.9v-4L4.1,46.4z"/>
			<path class="st3" d="M4.1,45.4l0.7,1l48.3-27.9c1.1-0.6,2.5-0.7,3.7-0.1l18.6,10.8l2.8-2v4.1c0,0.5-0.4,1-0.9,1.2L26.5,61.7
				c-1.1,0.6-2.5,0.7-3.7,0.1l-20.7-12c-0.4-0.2-0.6-0.5-0.6-0.9v-4L4.1,45.4z"/>
			<path class="st4" d="M2.4,43.7l50.7-29.2c1.1-0.6,2.5-0.7,3.7-0.2l20.7,12.1c0.9,0.5,0.8,1.5-0.3,2.1L26.5,57.8
				c-1.1,0.6-2.5,0.7-3.7,0.1L2.1,45.8C1.2,45.3,1.3,44.4,2.4,43.7z"/>
			<ellipse cx="63" cy="30.3" rx="0.7" ry="0.4"/>
			<ellipse cx="52.3" cy="24.1" rx="0.7" ry="0.4"/>
			<ellipse class="st3" cx="49.5" cy="38.5" rx="0.7" ry="0.4"/>
			<ellipse class="st3" cx="38.8" cy="32.3" rx="0.7" ry="0.4"/>
			<ellipse cx="33.5" cy="47.5" rx="0.7" ry="0.4"/>
			<ellipse cx="22.8" cy="41.3" rx="0.7" ry="0.4"/>
			<path class="st3" d="M27.9,20.8v-0.1c0,0,0-0.1,0-0.1c0.1-0.1,0.1-0.2,0.2-0.2L54.9,4.5c0.2-0.1,0.4-0.1,0.6,0h0.1l2,1.1
				l-1.7,0.8v7.5L30.2,29L30,29.1v2.4l-0.1-0.1l-2-1.1l0,0L27.9,20.8L27.9,20.8z"/>
			<path class="st4" d="M30,21.9c0-0.2,0.1-0.4,0.3-0.5L57.1,5.7c0.1-0.1,0.2-0.1,0.3-0.1l0,0c0.3,0,0.6,0.3,0.6,0.6v8.9L30,31.5
				L30,21.9z"/>
			<path class="st3" d="M1.8,35.6l25.7-14.8c0.1,0,0.1,0,0.2-0.1c0.1,0,0.2,0,0.2,0c0,0,0.1,0,0.2,0h0.1l1.9,1.1l-0.2,0.1l-1.5,0.7
				v7.5l-0.5,0.3l-24.3,14v2.4l-2.1-1.2v-9.5C1.5,35.9,1.6,35.7,1.8,35.6z"/>
			<path class="st4" d="M3.6,37.2c0-0.2,0.1-0.4,0.3-0.5l25.8-14.8c0.1-0.1,0.2-0.1,0.3-0.1l0,0l0,0c0.3,0,0.6,0.3,0.6,0.6v8.9
				L3.6,46.7L3.6,37.2z"/>
			<path class="st5" d="M29.9,31.3l0.3-0.1L57.9,15l0.1,0.2L30.2,31.4L30,31.5L3.6,46.8l-0.1-0.2L29.9,31.3z"/>
			<path class="st5" d="M27.7,20.6c0.1,0,0.2,0,0.2,0c0,0,0-0.1,0-0.1l1.9,1c0.2,0.1,0.3,0.3,0.3,0.5v9.4L30,31.5h-0.1V22
				c0,0,0-0.1,0-0.1c0-0.1-0.1-0.1-0.1-0.1l-1.8-1h0L27.7,20.6L27.7,20.6z"/>
			<path class="st6" d="M50.1,19.4c0.5,0.7,5.2,5.8,5.2,5.8c2.1-0.2,2-1.2,2-1.2c-1.9-1.9-3.5-4.1-4.8-6.5c-3.2-4.7-1.7-7.7-2.9-8.9
				s-2-0.3-2-0.3C47.3,9.7,46.5,13.9,50.1,19.4z"/>
			<path class="st2" d="M65.4,43.5c0,0,0.8,2.1,1,2.3c0.1,0.2,5.4,0.9,5.9-0.2S67.8,43,67.8,43L65.4,43.5z"/>
			<path class="st3" d="M52.3,31.4l6.6,7.4l-2.2,1.9c-0.1-1.9-1.1-3.7-2.6-4.9c-2.5-1.7-6.5-3.2-7-3.7c-0.7-0.9-1.1-2-1.3-3.1
				L52.3,31.4z"/>
			<path class="st7" d="M48.5,8.3c2.1,0.5,3.1,4.9,3.1,4.9c-0.5,0.8-3.8,1.2-3.8,1.2s-0.7-2.5-1-4.1C46.6,9.5,47.8,8.1,48.5,8.3z"/>
			<path class="st8" d="M65.6,43.9c0,0,0.1,0.8,1.7,0c0.4-0.2,0.7-0.6,0.7-1.1l-0.6-1.1c-0.6,0.7-1.6,1.2-2.6,1.1L65.6,43.9z"/>
			<path class="st9" d="M63.8,31.3c-0.1-0.5-0.4-0.9-0.9-1.2l-7.1-4c-1.1-0.6-2.1-1.5-2.8-2.6l0,0l-3.6,3.2l2.3,0.4l-2.6,2.2
				l3.2,1.7c0.8,0.4,1.5,0.7,2.3,1l5.3,2c0.3,0.1,0.5,0.4,0.6,0.7l4.3,8.5c0,0,0.2,0.1,1.8-0.1s1.4-1,1.4-1L63.8,31.3z"/>
			<path class="st2" d="M62.2,47.4c0,0,0.6,2.1,0.7,2.3s5.2,1.5,5.8,0.5c0.7-1-4-3.1-4-3.1L62.2,47.4z"/>
			<path class="st8" d="M62.4,48.1c0,0,0,0.9,1.7,0.2c0.4-0.1,0.8-0.5,0.8-1l-0.4-1.2c-0.7,0.7-1.7,0.9-2.7,0.8L62.4,48.1z"/>
			<path class="st10" d="M65.1,46.6l-5.2-13.2c0-0.5-0.3-1-0.7-1.3l-7.8-5.9l-0.2-0.4L45,27.4l0.2,0.7c0.3,0.9,0.9,1.8,1.7,2.3
				l1.7,1.2c0.7,0.5,1.4,0.9,2.1,1.3l5,2.7c0.3,0.2,0.5,0.5,0.5,0.8l5.1,9.9c0.5,0.8,1.4,1.1,2.2,0.9C65.2,46.9,65.1,46.6,65.1,46.6
				z"/>
			<path class="st11" d="M45.1,27.5c-0.4-0.1-2.5-7.7-3.7-11.8c-0.5-1.8,0.1-3.7,1.5-4.9c1.5-1.3,3.2-2.2,5.1-2.9
				c0.6-0.2,2,0.8,2.5,2.5c0.2,0.7,0.6,3.5,1.3,6.3c0.9,3.3,1.5,7,1.5,7C53.3,24.5,49.5,27.9,45.1,27.5z"/>
			<path class="st6" d="M44.4,6.8c0.2,1.3,0.3,2.6,0.2,3.9c0.4,0.4,1,0.7,1.6,0.8c1,0.1,2.2-0.6,2-1.3c-0.3-1-0.8-2.7-0.8-2.7
				L44.4,6.8z"/>
			<path d="M44.7,9.6c-0.2,0.3-0.3,0.7-0.2,1.1c0.2,0.8,2.9,2,2.9,2l0.1-1.9c-0.9,0-1.8-0.2-2.6-0.6c-0.1-0.1-0.1-0.2-0.1-0.3
				L44.7,9.6z M48,9.2c0.1,0.3,0.2,0.6,0.3,0.8c0,0.2-0.4,0.7-0.4,0.7L49,12c0.1-0.6,0.1-1.2-0.2-1.8C48.7,9.8,48.4,9.4,48,9.2
				L48,9.2z"/>
			<path d="M47.5,10.9l0.9,3.3l0.4-0.3L48,10.7L47.5,10.9z"/>
			<path class="st12" d="M49.8,5.1c0.2-3-0.9-5.3-3.9-4.9c-2.6,0.4-3.2,4.4-2,6.4c1.4,2.5,4,3.1,4.8,2.5S49.8,5.1,49.8,5.1L49.8,5.1
				z"/>
			<path class="st13" d="M49.5,1.1c-1.3-1.2-3.2-1.5-4.7-0.5c-0.9,0.6-1.4,1.4-0.8,2.2c0.2,0.3,0.5,0.6,0.8,0.8
				c0.7,0.4,1.3,0.1,2.1,0c1.7-0.2,3.1,0.8,3,1.4C50,4,50.5,2.3,49.5,1.1z"/>
			<path class="st13" d="M45,6.8c0.2-1.3,0.8-2,0.5-3.3c-0.1-0.7-0.6-1.4-1.2-1.7c-0.1,0-0.2-0.1-0.3-0.1c-0.2,0-0.4,0.1-0.6,0.3
				c-0.1,0.2-0.2,0.4-0.3,0.6c-0.4,1.4-0.1,2.9,0.8,4.1c-0.2-0.4-0.5-2.1-0.4-2.3s0.7-0.2,1,0.6C44.8,5.7,44.9,6.2,45,6.8L45,6.8z"
				/>
			<path class="st14" d="M63.9,27.9l-0.3,0.1l-6.1-3.5l-11.3,6.5L46,30.9v0.3l6.4,3.7L64,28.2L63.9,27.9L63.9,27.9z"/>
			<path class="st15" d="M57.5,24.2L46,30.9l6.4,3.7L64,27.9L57.5,24.2z"/>
			<path class="st16" d="M58.1,25.3l-9.4,5.4l5.2,3l9.4-5.4C63.2,28.3,58.1,25.3,58.1,25.3z"/>
			<path class="st6" d="M55.2,25.3c0,0,1.5,1.7,1.8,1.7c0.3,0,1.7-0.5,1.7-0.8s-0.4-0.7-0.4-0.7c0-0.2,0-0.4-0.2-0.5
				c-0.1-0.2-1.1-1-1.1-1C56,23.4,55.2,25.3,55.2,25.3z"/>
			<path class="st6" d="M48.1,26.8c0,0,1.7,1.4,2,1.3s1.5-0.8,1.5-1.1c0-0.3-0.5-0.6-0.5-0.6c0-0.2-0.1-0.4-0.3-0.5
				c-0.2-0.2-1.3-0.8-1.3-0.8C48.4,24.8,48.1,26.8,48.1,26.8z"/>
			<path class="st6" d="M44.6,23.1c1.1,1.3,2.2,2.6,3.4,3.9c1.3,0.3,1.7-1.5,1.7-1.5s-0.8,0-3.4-3.9c-2.2-3.9-0.9-6.9-2-8.2
				s-1.9-0.5-1.9-0.5C42,14,41.5,17.3,44.6,23.1z"/>
			<path class="st7" d="M43.4,11.6c2,0.7,2.5,5.2,2.5,5.2c-0.6,0.7-4,0.9-4,0.9c-0.3-1.4-0.5-2.8-0.5-4.2
				C41.4,12.2,42.7,11.3,43.4,11.6z"/>
			<path class="st17" d="M64,20.8l0.2,0.2L64,21.1v7.1l-11.4,6.6v0.3l-0.2-0.2v-7.4L64,20.8z"/>
			<path class="st18" d="M64.2,21l-11.6,6.7v7.4l11.6-6.7V21z"/>
			<path d="M55.4,58.9l-7.2,0.2C50.5,58.3,53,58.3,55.4,58.9z"/>
			<path class="st3" d="M59.1,60.4v2.2c0,0.2-0.2,0.4-0.4,0.4l0,0c-0.2,0-0.4-0.2-0.4-0.4v-2.2c0-0.2,0.2-0.4,0.4-0.4l0,0
				C58.9,60,59.1,60.2,59.1,60.4z"/>
			<path class="st3" d="M51.6,63.4v2.2c0,0.2-0.2,0.4-0.4,0.4h0c-0.2,0-0.4-0.2-0.4-0.4v-2.2c0-0.2,0.2-0.4,0.4-0.4h0
				C51.4,63,51.6,63.2,51.6,63.4z"/>
			<path class="st3" d="M43.8,60.1v2.2c0,0.2-0.2,0.4-0.4,0.4h0c-0.2,0-0.4-0.2-0.4-0.4v-2.2c0-0.2,0.2-0.4,0.4-0.4h0
				C43.7,59.8,43.8,59.9,43.8,60.1z"/>
			<path class="st3" d="M45.5,56c0.7-0.4,1.4-0.7,2.2-0.9l7.2-0.2c0.8,0.2,1.6,0.5,2.3,0.9c1.5,0.8,2.3,1.9,2.3,3v0.2
				c0,1.2-1,2.5-2.7,3.5c-3.6,2-7.9,2-11.6,0.2c-1.5-0.9-2.3-2-2.3-3.1v-0.1C42.9,58.3,43.9,57,45.5,56z"/>
			<path class="st3" d="M59.5,58.8c-0.2-1.3-1.1-2.5-2.3-3c-0.7-0.4-1.5-0.7-2.3-0.9l4.6-0.1L59.5,58.8z M47.7,55.1
				c-0.7,0.2-1.5,0.5-2.1,0.9c-1.7,1-2.7,2.3-2.7,3.5v-4.3L47.7,55.1z"/>
			
				<ellipse transform="matrix(0.9986 -5.251029e-02 5.251029e-02 0.9986 -2.8063 2.7637)" class="st4" cx="51.2" cy="54.8" rx="8.2" ry="4.7"/>
			<path class="st19" d="M9.4,36.9c-0.2-2.3,1-4.5,3-5.6l5.3-2.6c0.2-0.1,0.3-0.2,0.4-0.3l5.2-3.5c1-0.7,2-0.7,2.5-0.1
				c2.2,0.1,4.5,3.4,4.5,3.4l-3.9,2.4l-0.1-0.1c-0.3,1.8-1.4,3.3-3,4.2l-5.2,2.5c-0.2,0.1-0.3,0.2-0.5,0.3l-1,0.7l-2,6.4
				c0,0-4.4-1.3-4.8-3.6c-0.3-0.4-0.5-1-0.5-1.5c0.1-0.2,0.1-0.5,0.1-0.7c0.1-0.4,0.1-0.9,0-1.3L9.4,36.9z"/>
			<path class="st20" d="M13.9,42.1c0.1-0.4,0.1-0.8,0-1.3l-0.1-0.7c-0.3-1.9-1.4-7.3,0.5-8.2l1.7-1.3c0.6-0.4,1.2-0.8,1.8-1.1
				c1.2-0.6,3.1-1.6,3.2-1.7l5.5-2.6c1.8-1.3,4.6,2.7,4.2,5.1l-0.1,0.4c-0.1,0.4-0.1,0.9,0,1.3l0.1,0.3c0.2,2.3-1,4.5-3,5.7
				l-5.2,2.4c-0.2,0.1-0.3,0.2-0.5,0.3l-5.1,3.5C15,45.5,13.5,44.4,13.9,42.1z"/>
			<path class="st21" d="M46.7,52.2c0,0,4.4-2.3,4.8-1.2c0.4,1.2-3.8,4.2-4,4.1s-2.2-0.9-2.2-0.9L46.7,52.2z"/>
			<path class="st21" d="M47.7,50.2c0,0,4.4-2.4,4.8-1.2c0.4,1.2-3.8,4.2-4,4.1s-2.2-0.9-2.2-0.9L47.7,50.2z"/>
			<path class="st22" d="M29.6,40.6l8.7,3.2l9.7,6.3l-1.5,2.2l-9.7-5.4l-5.2-0.2c-8.9-0.4-8.8-4.5-8.8-4.5L29.6,40.6z"/>
			<path class="st3" d="M19.9,42.2l0.2-1.1l0.9,0.3l6.3,4.2l4.3,0.2l4.7,2.1l4,2.1c0,0,0.7,2.6-2.2,1s-13.2-2.1-14.6-2.5
				s-3.8-6.1-3.8-6.1"/>
			<path class="st6" d="M32.7,35.4c0.6,0.4,1.2,0.8,1.8,1.3c0,0.3,0,0.7-0.1,1c-0.1,0.1-1,0.7-1.3,0.6c-0.4-0.2-0.7-0.5-0.8-0.9
				c-0.1-0.4-0.4-0.7-0.7-0.9L32.7,35.4z"/>
			<path class="st23" d="M27.3,42.9l10,2.8L47,52l-1.5,2.3l-9.7-5.4l-5.2-0.2c-8.9-0.4-8.8-4.5-8.8-4.5L27.3,42.9z"/>
			<path class="st6" d="M22.7,27.4c0.2-0.2,1.4-1,3.2,0.5c0.6,0.5,0.8,2.8,2.8,4.7c0.8,0.8,4.2,3,4.2,3c0.5,0.5-0.3,1.2-1,1.2
				c-1.4-0.6-2.7-1.3-4-2.1C25.1,31.7,21.5,28.7,22.7,27.4z"/>
			<path class="st21" d="M23.1,29.9l-1.8-2.4c0.8-0.5,1.7-0.8,2.6-0.9c0.9,0.1,3.3,2.2,3.3,2.2c0.1,1.1-0.6,2-1.6,2.4L23.1,29.9z"/>
			<path class="st19" d="M17.7,29.4l2.5,5.2l0.8,6.9l-1.3,0.9c-6.6-4.8-3.2-12.2-3.2-12.2L17.7,29.4z"/>
			<path class="st21" d="M29.6,40.7c0,0-1-3.5-2.2-6.6c-1-2.6-1.6-5-1.8-5.7c-0.6-1.6-2.1-2.4-2.7-2.2c-2.7,1.1-5.1,3.1-6.7,5.5
				c0,0,5.3,13.6,5.8,13.6C26.4,45.1,29.8,41.4,29.6,40.7z"/>
			<path class="st6" d="M16.7,32.2c-0.1-0.3-0.3-0.7-0.1-1c0.2-0.3,0.6-0.5,0.9-0.6c0.8-0.1,1.5,0.4,1.6,1.2l1.1,5.6
				c0,0.2,0.2,0.4,0.4,0.5l5.6,0.5c0.5,0.2,0.8,0.4,0.9,1.1c0,0.2,0,0.4-0.1,0.6c-0.1,0.2,0,0.2-0.8,0.2H20c-0.4,0-0.8-0.1-1.1-0.3
				c-0.6-0.4-1-1.1-1.1-1.8L16.7,32.2L16.7,32.2z"/>
			<path class="st6" d="M26,38.5c0,0,1.3,0,1.5,0c0.2,0.1,0.3,0.2,0.5,0.3c0,0,0.6,0,0.8,0.2s-0.5,1.1-0.8,1.4s-2.4-0.1-2.4-0.1
				S24.9,38.7,26,38.5z"/>
			<path class="st21" d="M19.5,32.2L18.4,30c0,0-1.9,0.7-2.2,1.6c-0.3,0.9,0.7,3.9,0.7,3.9c0.9,0.5,2.1,0.3,2.8-0.5L19.5,32.2z"/>
			<path class="st6" d="M20.9,25.6c0,0,0.8,1.6,1.3,2.5c0.1,0.1,0.1,0.2,0.1,0.4c0.1,0.7-0.5,1.4-1.2,1.4c-0.8,0.1-1.7-0.1-2.3-0.8
				c-0.1-1.3-0.4-2.5-0.9-3.7L20.9,25.6z"/>
			<path class="st12" d="M20,19.7c1.5-0.3,2.9,0.5,3.4,2c0.3,1,0.4,2,0.2,3c0,0-0.3,3.3-1.2,3.9s-3.3-0.2-4.6-2.6
				c-0.2-0.4-0.4-0.9-0.4-1.4C17.2,22.4,18,19.9,20,19.7z"/>
			<path class="st13" d="M17.1,28.8c-0.1-1.5-0.1-2.9-0.1-4.4c-0.3-2,1-4.5,3-4.8c1.5-0.3,3,0.6,3.4,2c-1,1.2-2.3,2-3.8,2.5
				c0,0,0.7,5.8,2.6,5.9S17.2,31.2,17.1,28.8L17.1,28.8z"/>
			<path class="st13" d="M24.8,25.7c0.2,1.1-1.4,2.4-1.4,2.4c0.5-0.9-0.5-4.9-0.6-6.5c-0.1-0.5,0.6,0,0.6,0
				C24,22.9,24.4,24.3,24.8,25.7z"/>
			<path class="st11" d="M29.1,34.7l2.1-2l-1.1,5.2l-2.2,2L29.1,34.7z"/>
			<path class="st7" d="M28.5,34.9l0.6-0.2l-1.1,5.2l-0.6,0.2L28.5,34.9z"/>
			<path class="st6" d="M27.8,40.2l-0.6,0.1L25.9,39c0.2,0,0.4,0,0.6,0.1c0.5,0,0.9-0.1,1.3-0.3c0.2-0.2,0.9,0,0.9,0.2
				c0,0.1,0,0.3,0,0.4L27.8,40.2z"/>
		</g>
		<g class="st0">
			<ellipse class="st1" cx="68.8" cy="69.9" rx="11.7" ry="6.7"/>
		</g>
		<path class="st6" d="M63.7,71.9c0.4,0.6,1.2,0.8,1.9,0.4c0.9-0.5,0.8-2,1.4-2.5s-0.1-2.4-0.1-2.4c-0.3-0.1-0.5-0.1-0.8-0.1
			c-0.4,0.1-0.7,0.4-0.9,0.7c0,0-0.3,1.3-0.6,2.3c-0.1,0.3-0.3,0.6-0.5,0.8l0,0l0,0C63.8,71.3,63.7,71.6,63.7,71.9z"/>
		<path d="M64.1,71.1c-0.2,0.2-0.4,0.5-0.3,0.8c0.4,0.6,1.2,0.8,1.9,0.5c0.9-0.5,0.8-2,1.4-2.5s-0.1-2.4-0.1-2.4h-0.2
			c-0.5,0-1,0.3-1.1,0.8c-0.2,0.7-0.5,1.5-0.8,2.2c-0.2,0.5-0.4,0.8-0.5,0.8C64.3,71.2,64.2,71.2,64.1,71.1L64.1,71.1z"/>
		<path class="st6" d="M71.4,43c0,0-0.1,0.8-0.1,1s-0.4,1.3-0.4,1.5c0.5,0.3,1.1,0.6,1.7,0.7c0.1-0.1,0.7-0.5,0.7-0.5l0.1-1.9
			L71.4,43z"/>
		<path class="st6" d="M71.8,35.4c0.1,2.8-0.1,5.6-0.3,8.3c1.7,0.8,2.1,0.1,2.1,0.1s0.3-2.8,0.4-6.1c0-2.2-0.1-4.4-0.4-6.6
			c-0.3-4-2.8-4-3.2-3.6C69.1,28.9,71.7,31.3,71.8,35.4z"/>
		<path class="st6" d="M64.3,45.2l0.8,22.6c0.2,0.2,0.5,0.2,0.8,0.1c1-0.2,1-0.9,1-0.9c0.5-2.7,0.6-5.5,0.2-8.2c0,0,1.1-3.5,1.7-6.3
			l0.4,13c0.2,0.2,0.5,0.2,0.8,0.1c0.9-0.2,1-0.9,1-0.9c0.5-2.7,0.6-5.5,0.2-8.2c0,0,1.9-6.3,2.1-8.5c0.1-1.9-0.3-3.8-1.1-5.6
			L64.3,45.2z"/>
		<path class="st24" d="M64,45.4c0,0,1-5.4,1-6.9c0-1.1-1.8-2.6-2-3.6c0-1.2,0.2-2.3,0.6-3.4c2.1-1.8,4.6-3.1,7.2-4
			c1,0,2.3,0.7,2.3,3.9c0,1.4-1.8,4.5-1.3,7.2c0.3,2.1,0.9,4.1,1.6,6.1C70.9,48,65.3,48,64,45.4z"/>
		<path class="st6" d="M64.5,23.9c-0.2-3,1.8-5,4.7-4.5c2.5,0.4,3.1,4.2,2,6.3c-1.1,2-5.2,2.4-5.9,1.8S64.5,23.9,64.5,23.9
			L64.5,23.9z"/>
		<path class="st6" d="M67.9,69.6c0.4,0.6,1.2,0.8,1.9,0.4c0.9-0.5,0.8-2,1.4-2.5s-0.1-2.4-0.1-2.4C70.8,65,70.5,65,70.2,65
			c-0.4,0.1-0.7,0.4-0.9,0.7c0,0-0.3,1.3-0.6,2.3c-0.1,0.3-0.3,0.6-0.5,0.8l0,0C68,69,67.8,69.3,67.9,69.6z"/>
		<path d="M67.9,69.6c0.4,0.6,1.2,0.8,1.9,0.4c0.9-0.5,0.7-2,1.4-2.5S71,65.1,71,65.1h-0.2c-0.5,0-1,0.3-1.1,0.8
			c-0.2,0.7-0.5,1.5-0.8,2.2c-0.2,0.5-0.7,0.8-0.8,0.7C68,69,67.8,69.3,67.9,69.6z M66.8,69v3.3h-0.2c0,0-0.2-2.1-0.2-3.2
			C66.4,68.9,66.8,69,66.8,69z"/>
		<path class="st24" d="M63.9,45.4c0,0,0.7,4.7,0.6,5.7c-0.1,1-0.7,5.5-0.3,5.7c1.5,0.2,3,0.3,4.5,0.2c1.3-0.1,5.4-1.3,5.7-1.7
			c0.3-0.4-1-10.6-1-10.6L63.9,45.4z"/>
		<path d="M71.2,66.7v3.4H71c0,0-0.2-2.1-0.2-3.2C70.8,66.6,71.2,66.7,71.2,66.7z"/>
		<path class="st6" d="M69.9,26c0,0-3.2,0.3-3,0.7c0.2,1,0.3,2,0.4,3c0,0,0.1,0.1,0.2,0.1c1.1,0.6,2.4,0.2,3-0.8L69.9,26L69.9,26z
			 M62.9,47.6c-0.2,0.1-0.2,1.3-0.2,1.3c0,0.3-0.2,1.3,0,1.4c0.5,0.4,1,0.7,1.5,0.9c0.3-0.1,0.5-0.3,0.7-0.5c0.2-0.4,0-0.6,0-0.8
			c0-0.2,0.1-1.8,0.1-1.8C64.3,47.9,63.6,47.8,62.9,47.6z"/>
		<path class="st16" d="M69.5,44.6c-0.7,0.1-5.4,0.2-5.4,0.2v1.3l1.3,0.2c0,0,3.7-0.1,4.3-0.2c0.6-0.1,3.8-0.8,3.8-0.8l-0.1-0.7
			L73.2,44C73.2,44,70.2,44.6,69.5,44.6z"/>
		<polygon class="st16" points="70.4,37.5 69,39.4 66.7,42.1 64.1,44.8 65.5,44.8 67.9,42.7 70.1,39.7 71.7,36.9 		"/>
		<path class="st6" d="M63.1,39.5c0,3.2-0.5,8.5-0.5,8.5c0,0.1,0.1,0.2,0.1,0.2c0.6,0.8,1.7,0.9,2.5,0.3c0,0,1-13.8,0.3-15.9
			s-1.9-1.6-2.2-1.1C62.7,32.6,63.1,36.3,63.1,39.5z"/>
		<path class="st25" d="M65,20.2c-0.6,0.7-0.9,1.6-0.7,2.6c0,0.5,0.4,1.8,0.7,3c-0.1,3.2,0,8.4,0.3,9.8c0.2,0.6,1.8,2.6,5.3,1.8
			c1.5-0.3,2.3-1.7,2.5-3.5c-0.2-3.6-0.6-7.1-1.2-10.6c-0.5-2.1-1.4-4.2-4.7-4.1C66.4,19.2,65.6,19.6,65,20.2L65,20.2z"/>
	</g>
</g>
</svg>
