<svg xmlns="http://www.w3.org/2000/svg" xmlns:xlink="http://www.w3.org/1999/xlink" viewBox="0 0 49.3 80.67"><defs><style>.cls-1{fill:#116d5b;}.cls-2{fill:#109a83;}.cls-3{fill:url(#未命名的渐变_96);}.cls-4{fill:#fff;}.cls-5{opacity:0.3;}.cls-6{fill:#020005;}.cls-7{fill:#ffb657;}.cls-8{fill:#ed2651;}.cls-9{fill:#f7dd6d;}</style><linearGradient id="未命名的渐变_96" x1="-2.8" y1="343.02" x2="73.02" y2="398.37" gradientTransform="matrix(1, 0, 0, -1, -14.12, 421.08)" gradientUnits="userSpaceOnUse"><stop offset="0" stop-color="#fff"/><stop offset="1" stop-color="#b2c5e5"/></linearGradient></defs><title>技师</title><g id="图层_2" data-name="图层 2"><g id="技师房"><path class="cls-1" d="M49,.89h0s-.21-.05-.65.13V32.31L1,59.64v2.25a1.1,1.1,0,0,0,.05.35H1a.5.5,0,0,0,.11.26h0l-.76-.66a.36.36,0,0,1-.15-.15l0,0h0l0,0h0A1,1,0,0,1,0,61V28.7A2.2,2.2,0,0,1,.92,27L47.4.11a.55.55,0,0,1,.7,0Z"/><path class="cls-2" d="M49.3,1.62V31.73l-1,.57h0L1,59.64V29.53a2.16,2.16,0,0,1,.91-1.74L48.33,1l.05,0a.61.61,0,0,1,.6,0h0A.84.84,0,0,1,49.3,1.62Z"/><path class="cls-3" d="M49.3,31.75V34a2.48,2.48,0,0,1-.43,1.29s0,0,0,.06l0,0s-.05.07-.09.1l-.06.07-.07.06a1.24,1.24,0,0,1-.18.14L2.07,62.47h0l-.19.1a.58.58,0,0,1-.18.08l-.05,0a.34.34,0,0,1-.13,0H1.38a.37.37,0,0,1-.16-.09h0l0,0A.82.82,0,0,1,1,62.24H1A1.48,1.48,0,0,1,1,61.89V59.64L48.32,32.3h0Z"/><path class="cls-4" d="M18.14,26.34,14.91,28.2c-.2.12-.36,0-.36-.21a.78.78,0,0,1,.36-.62l3.23-1.86a.23.23,0,0,1,.37.21A.8.8,0,0,1,18.14,26.34Z"/><path class="cls-4" d="M20.31,25.09l-.72.42c-.2.11-.35,0-.35-.22a.84.84,0,0,1,.35-.62l.72-.41c.2-.12.36,0,.36.2A.78.78,0,0,1,20.31,25.09Z"/><path class="cls-4" d="M31.79,18.47l-10,5.8a.23.23,0,0,1-.37-.21.8.8,0,0,1,.37-.62l10.05-5.79c.2-.12.37,0,.37.22A.82.82,0,0,1,31.79,18.47Z"/><path class="cls-4" d="M19.59,27.17l-4.68,2.7c-.2.11-.36,0-.36-.2a.78.78,0,0,1,.36-.62l4.68-2.7a.23.23,0,0,1,.37.22A.88.88,0,0,1,19.59,27.17Z"/><path class="cls-4" d="M34.65,18.47,21,26.34c-.2.11-.36,0-.36-.2a.79.79,0,0,1,.36-.62l13.63-7.87c.2-.12.35,0,.35.2A.73.73,0,0,1,34.65,18.47Z"/><path class="cls-4" d="M32.32,21.48l-9.15,5.27c-.2.12-.35,0-.35-.21a.84.84,0,0,1,.35-.62l9.15-5.27c.2-.12.35,0,.35.2A.76.76,0,0,1,32.32,21.48Z"/><path class="cls-4" d="M21.74,27.59l-5,2.89c-.2.12-.36,0-.36-.2a.76.76,0,0,1,.36-.61l5-2.92c.2-.11.36,0,.36.2A.85.85,0,0,1,21.74,27.59Z"/><path class="cls-4" d="M15.28,31.31l-.37.2c-.2.12-.36,0-.36-.2a.76.76,0,0,1,.36-.61l.37-.22a.23.23,0,0,1,.37.22A.77.77,0,0,1,15.28,31.31Z"/><path class="cls-4" d="M18.14,31.31l-3.23,1.87c-.2.11-.36,0-.36-.22a.76.76,0,0,1,.36-.61l3.23-1.87a.23.23,0,0,1,.37.22A.77.77,0,0,1,18.14,31.31Z"/><path class="cls-4" d="M20.31,30.08l-.72.42c-.2.12-.35,0-.35-.2a.84.84,0,0,1,.35-.62l.72-.41c.2-.12.36,0,.36.2A.82.82,0,0,1,20.31,30.08Z"/><path class="cls-4" d="M34.65,21.78,21.74,29.23a.23.23,0,0,1-.37-.21.79.79,0,0,1,.37-.62L34.65,21a.23.23,0,0,1,.37.21A.8.8,0,0,1,34.65,21.78Z"/><path class="cls-4" d="M19.59,32.15l-4.68,2.69c-.2.12-.36,0-.36-.21a.78.78,0,0,1,.36-.62l4.68-2.7c.2-.11.37,0,.37.2A.88.88,0,0,1,19.59,32.15Z"/><path class="cls-4" d="M24.62,29.25,21,31.31c-.2.12-.36,0-.36-.21a.79.79,0,0,1,.36-.62l3.6-2.08c.2-.11.35,0,.35.22A.79.79,0,0,1,24.62,29.25Z"/><path class="cls-4" d="M33.59,24.06,26.05,28.4c-.2.12-.37,0-.37-.2a.77.77,0,0,1,.37-.61l7.54-4.35c.2-.11.36,0,.36.22A.89.89,0,0,1,33.59,24.06Z"/><path class="cls-4" d="M38.41,22.93l-15.24,8.8c-.2.12-.35,0-.35-.22a.8.8,0,0,1,.35-.61l15.24-8.81a.23.23,0,0,1,.37.22A.8.8,0,0,1,38.41,22.93Z"/><path class="cls-4" d="M21.74,32.56l-5,2.9c-.2.11-.36,0-.36-.2a.79.79,0,0,1,.36-.62l5-2.89c.2-.12.36,0,.36.2A.82.82,0,0,1,21.74,32.56Z"/><path class="cls-4" d="M15.28,36.29l-.37.2c-.2.12-.36,0-.36-.2a.79.79,0,0,1,.36-.62l.37-.21a.23.23,0,0,1,.37.21A.79.79,0,0,1,15.28,36.29Z"/><path class="cls-4" d="M18.14,36.29l-3.23,1.86c-.2.12-.36,0-.36-.2a.76.76,0,0,1,.36-.61l3.23-1.87a.23.23,0,0,1,.37.22A.79.79,0,0,1,18.14,36.29Z"/><path class="cls-4" d="M20.31,35l-.72.42c-.2.11-.35,0-.35-.2a.84.84,0,0,1,.35-.62l.72-.41c.2-.12.36,0,.36.2A.76.76,0,0,1,20.31,35Z"/><path class="cls-4" d="M24.25,32.76l-2.51,1.45c-.2.12-.37,0-.37-.22a.77.77,0,0,1,.37-.61l2.51-1.45c.2-.12.37,0,.37.22A.77.77,0,0,1,24.25,32.76Z"/><path class="cls-4" d="M31.07,28.83l-5.37,3.1c-.2.12-.37,0-.37-.2a.8.8,0,0,1,.37-.62L31.07,28c.2-.12.37,0,.37.2A.94.94,0,0,1,31.07,28.83Z"/><path class="cls-4" d="M19.59,37.32,14.91,40c-.2.11-.36,0-.36-.2a.79.79,0,0,1,.36-.62l4.68-2.69a.23.23,0,0,1,.37.21A.91.91,0,0,1,19.59,37.32Z"/><path class="cls-4" d="M24.62,34.41,21,36.49c-.2.12-.36,0-.36-.2a.79.79,0,0,1,.36-.62l3.6-2.08c.2-.11.35,0,.35.22A.82.82,0,0,1,24.62,34.41Z"/><path class="cls-4" d="M34.3,28.82l-8.24,4.76c-.19.11-.36,0-.36-.22a.79.79,0,0,1,.36-.61L34.3,28a.23.23,0,0,1,.37.21A.9.9,0,0,1,34.3,28.82Z"/><path class="cls-4" d="M38.6,28,23.19,36.91c-.2.11-.35,0-.35-.22a.81.81,0,0,1,.35-.62l15.42-8.9c.2-.12.37,0,.37.2A.92.92,0,0,1,38.6,28Z"/><path class="cls-4" d="M21.74,37.74l-5,2.89c-.2.12-.36,0-.36-.2a.76.76,0,0,1,.36-.61l5-2.91c.2-.12.36,0,.36.2A.83.83,0,0,1,21.74,37.74Z"/><path class="cls-4" d="M15.28,41.47l-.37.2c-.2.11-.36,0-.36-.2a.78.78,0,0,1,.36-.62l.37-.22a.23.23,0,0,1,.37.22A.86.86,0,0,1,15.28,41.47Z"/><path class="cls-4" d="M18.14,41.47l-3.23,1.86c-.2.12-.36,0-.36-.22a.76.76,0,0,1,.36-.61l3.23-1.87a.23.23,0,0,1,.37.22A.86.86,0,0,1,18.14,41.47Z"/><path class="cls-4" d="M20.31,40.22l-.72.41c-.2.12-.35,0-.35-.2a.8.8,0,0,1,.35-.61l.72-.42c.2-.11.36,0,.36.2A.79.79,0,0,1,20.31,40.22Z"/><path class="cls-4" d="M31.79,33.59l-10,5.81a.23.23,0,0,1-.37-.21.79.79,0,0,1,.37-.62l10.05-5.79c.2-.12.37,0,.37.22A.94.94,0,0,1,31.79,33.59Z"/><path class="cls-4" d="M19.59,42.3,14.91,45c-.2.12-.36,0-.36-.21a.79.79,0,0,1,.36-.62l4.68-2.69c.2-.12.37,0,.37.2A.9.9,0,0,1,19.59,42.3Z"/><path class="cls-4" d="M34.65,33.59,21,41.47c-.2.11-.36,0-.36-.22a.79.79,0,0,1,.36-.62l13.63-7.87c.2-.11.35,0,.35.2A.71.71,0,0,1,34.65,33.59Z"/><path class="cls-4" d="M32.32,36.59l-9.15,5.28c-.2.11-.35,0-.35-.22a.84.84,0,0,1,.35-.62l9.15-5.27c.2-.12.35,0,.35.2A.73.73,0,0,1,32.32,36.59Z"/><path class="cls-4" d="M21.74,42.7l-5,2.89c-.2.12-.36,0-.36-.2a.76.76,0,0,1,.36-.61l5-2.9c.2-.11.36,0,.36.2A.79.79,0,0,1,21.74,42.7Z"/><path class="cls-4" d="M15.28,46.44l-.37.2c-.2.12-.36,0-.36-.2a.76.76,0,0,1,.36-.61l.37-.22c.2-.12.37,0,.37.22A.84.84,0,0,1,15.28,46.44Z"/><g class="cls-5"><ellipse class="cls-6" cx="16.4" cy="75.09" rx="9.72" ry="5.58"/></g><path class="cls-7" d="M12.47,76.07l0,0,0,0a1.51,1.51,0,0,0,.44-.67c.22-.82.48-1.91.48-1.91a1.19,1.19,0,0,1,.76-.59,2,2,0,0,1,.67.1s.56,1.54.06,2-.39,1.67-1.13,2.1a1.23,1.23,0,0,1-1.57-.38A.77.77,0,0,1,12.47,76.07Z"/><path d="M12.47,76.07a.62.62,0,0,0,.26.09c.1,0,.26-.3.43-.67.24-.6.46-1.2.64-1.82a.81.81,0,0,1,.89-.7l.14,0s.56,1.54.06,2-.39,1.68-1.13,2.11a1.26,1.26,0,0,1-1.57-.38.75.75,0,0,1,.28-.67Z"/><path class="cls-7" d="M20.2,53.35,20.12,55s-.54.35-.6.41a3.42,3.42,0,0,1-1.37-.57c0-.15.29-1.08.29-1.22s.1-.85.1-.85Z"/><path class="cls-7" d="M17.73,40.06c.37-.34,2.42-.31,2.68,3a50.65,50.65,0,0,1,.29,5.44c-.11,2.68-.34,5-.34,5S20,54,18.6,53.39a58.09,58.09,0,0,0,.28-6.9c-.12-3.39-2.26-5.45-1.15-6.43Z"/><path class="cls-7" d="M19.26,52.34A9.38,9.38,0,0,1,20.2,57,52.73,52.73,0,0,1,18.48,64a21.41,21.41,0,0,1-.19,6.83s0,.53-.79.72a.67.67,0,0,1-.67-.1l-.38-10.75c-.49,2.25-1.4,5.19-1.4,5.19a21.41,21.41,0,0,1-.19,6.83s0,.53-.79.72a.67.67,0,0,1-.67-.1l-.65-18.72Z"/><path class="cls-8" d="M20.2,54.13a26.65,26.65,0,0,1-1.37-5c-.37-2.21,1.12-4.8,1.12-6,0-2.6-1.12-3.22-2-3.21a18.05,18.05,0,0,0-6,3.31,10.68,10.68,0,0,0-.47,2.84c.15.85,1.63,2.05,1.63,3,0,1.19-.82,5.69-.82,5.69C13.49,56.88,18.16,56.88,20.2,54.13Z"/><path class="cls-7" d="M12.79,36.94s-.08,2.48.58,3,4,.17,4.92-1.5.42-4.84-1.64-5.19c-2.4-.4-4,1.22-3.86,3.71Z"/><path class="cls-7" d="M15.9,74.18h0a1.62,1.62,0,0,0,.45-.67c.22-.82.47-1.9.47-1.9a1.23,1.23,0,0,1,.76-.6,2.18,2.18,0,0,1,.67.1s.57,1.54.06,2-.39,1.68-1.13,2.11a1.29,1.29,0,0,1-1.57-.38.78.78,0,0,1,.29-.67Z"/><path d="M15.61,74.84a1.27,1.27,0,0,0,1.56.38c.74-.43.72-1.72,1.13-2.11s-.06-2-.06-2l-.14,0a.79.79,0,0,0-.88.69,16.39,16.39,0,0,1-.65,1.82c-.15.38-.6.63-.67.59A.77.77,0,0,0,15.61,74.84Zm-.85-.54v2.81H14.6s-.17-1.73-.17-2.61C14.43,74.21,14.76,74.3,14.76,74.3Z"/><path class="cls-8" d="M20.2,54.13s1.09,8.42.85,8.8-3.64,1.35-4.74,1.45a17.58,17.58,0,0,1-3.75-.2c-.32-.12.21-3.89.29-4.71s-.49-4.73-.49-4.73Z"/><path d="M18.07,72.62c0,.89.17,2.62.17,2.62h.16V72.42S18.07,72.32,18.07,72.62Z"/><path class="cls-7" d="M17.29,38.72s-2.63.28-2.46.61a17.57,17.57,0,0,1,.34,2.54,1.82,1.82,0,0,0,2.61-.63l-.49-2.52ZM11.47,56.61c-.12,0-.14,1-.14,1.11s-.15,1.05,0,1.15a5,5,0,0,0,1.27.73,2.06,2.06,0,0,0,.57-.39c.14-.34,0-.46,0-.64s0-1.53,0-1.53A14.57,14.57,0,0,0,11.47,56.61Z"/><path class="cls-4" d="M20,53.59l.2.54.07.55s-2.69.63-3.19.69-3.54.12-3.54.12l-1.09-.12V54.26s3.89-.08,4.5-.13S20,53.59,20,53.59Z"/><polygon class="cls-4" points="18.8 47.73 17.48 50.02 15.66 52.5 13.61 54.23 12.45 54.26 14.67 52.05 16.59 49.78 17.7 48.19 18.8 47.73"/><path class="cls-7" d="M11.86,43.36c.28-.42,1.31-.86,1.83.93s-.28,13.16-.28,13.16a1.45,1.45,0,0,1-2-.29.76.76,0,0,1-.12-.19s.37-4.4.37-7.09S11.33,44.16,11.86,43.36Z"/><path class="cls-9" d="M13.27,33.93a2.6,2.6,0,0,1,1.8-.9c2.71-.12,3.51,1.67,3.92,3.39a65.83,65.83,0,0,1,1,8.8c-.19,1.51-.85,2.66-2.11,2.93-2.89.61-4.22-1-4.35-1.51a51.28,51.28,0,0,1-.27-8.11c-.25-1-.55-2.05-.59-2.46a2.73,2.73,0,0,1,.6-2.14Z"/></g></g></svg>