<?xml version="1.0" encoding="utf-8"?>
<!-- Generator: Adobe Illustrator 23.0.0, SVG Export Plug-In . SVG Version: 6.00 Build 0)  -->
<svg version="1.1" id="图层_1" xmlns="http://www.w3.org/2000/svg" xmlns:xlink="http://www.w3.org/1999/xlink" x="0px" y="0px"
	 viewBox="0 0 117.6 90.1" style="enable-background:new 0 0 117.6 90.1;" xml:space="preserve">
<style type="text/css">
	.st0{fill:#FF802E;}
	.st1{fill:#FF9958;}
	.st2{fill:none;}
	.st3{opacity:0.3;}
	.st4{fill:#020005;}
	.st5{fill:#FFB382;}
	.st6{fill:#EBF4F8;}
	.st7{fill:#3C4344;}
	.st8{fill:#212626;}
	.st9{fill:#D3DEE2;}
	.st10{fill:#3B4344;}
	.st11{fill:#4B6BD1;}
	.st12{fill:#FFFFFF;}
	.st13{fill:#BC6D1E;}
	.st14{fill:none;stroke:#0AA58E;stroke-width:0.5;stroke-miterlimit:10;}
	.st15{fill:#0AA58E;}
	.st16{fill:#FFB657;}
	.st17{fill:#FF0000;}
	.st18{fill-rule:evenodd;clip-rule:evenodd;fill:#F7CE72;}
	.st19{fill-rule:evenodd;clip-rule:evenodd;fill:#FFA673;}
</style>
<title>水吧</title>
<g>
	<g id="水吧">
		<path class="st0" d="M62.2,13.3v18.3l1.4,0.8V14L62.2,13.3z"/>
		<path d="M62.2,12.5v0.7l1.4,0.8l0,0v-0.7L62.2,12.5z"/>
		<path class="st1" d="M44.7,1.1l-1.8-1v2.1l19.3,11.1l1.4,0.8l0,0v-2.1L44.7,1.1z"/>
		<path class="st2" d="M41.9,6.5v0.8"/>
		<path class="st0" d="M42.9,1.3v18.8l1.3,0.8V2.1L42.9,1.3z"/>
		<path class="st2" d="M44.3,21.1v-0.8 M63.6,11.9v-0.7 M63.6,14.6V14"/>
		<path class="st2" d="M62.1,32.3v0.8"/>
		<g class="st3">
			<path class="st4" d="M42.9,20.1L1,44.9L2.8,46l18.8,11.2l0,0l40.2-23.8l1.8-1.1L42.9,20.1z"/>
		</g>
		<path class="st0" d="M62.2,14.1l-1.3-0.8v19l1.4,0.8L62.2,14.1L62.2,14.1z"/>
		<path class="st1" d="M2.3,25.6v20.3L3.7,45V24.7L2.3,25.6z"/>
		<path d="M21.6,37.5l1.4-0.8l-1.4-0.8l-1.3,0.8L21.6,37.5z"/>
		<path class="st0" d="M21.6,38.3l-1.3-0.8v18.9l1.4,0.8L21.6,38.3L21.6,38.3z"/>
		<path d="M20.2,36.7v0.8l1.3,0.8l0,0v-0.7L20.2,36.7z"/>
		<path class="st1" d="M21.6,37.5v19.6l1.4-0.8V36.7L21.6,37.5z"/>
		<path class="st1" d="M21.6,36.2L2.7,25.2l-1.8-1v2.1l19.3,11.2l1.3,0.8l0,0V36.2L21.6,36.2z"/>
		<path class="st1" d="M61.8,13L42.9,2.1L2.8,25.3l18.9,10.9l0,0v2.1l1.4-0.8L63.6,14v-2.1L61.8,13z"/>
		<path class="st5" d="M42.9,0l-42,24.3l1.8,1l18.9,10.9l0,0L61.8,13l1.8-1.1L42.9,0z"/>
		<path class="st2" d="M0,30.7l0,0.8"/>
		<path class="st0" d="M2.3,26.3L1,25.5V45l1.3,0.8L2.3,26.3L2.3,26.3z"/>
		<path class="st2" d="M2.3,45.3v-0.8 M21.6,36.1v-0.7 M21.6,38.8v-0.5"/>
		<path class="st6" d="M28,16.6v0.8c0,0,0,0.1-0.1,0.1c-0.1,0.1-0.3,0.1-0.4,0c0,0-0.1-0.1-0.1-0.1v-0.8H28z"/>
		<path class="st7" d="M24.3,15l-8.8,0.6v7.6l8.8-4.8V15z"/>
		<path d="M33,23.6l-8.8-5.3v-7.6l6.3,3.7v-7l-8.9-5.2v17.3L33,26.4L33,23.6L33,23.6z"/>
		<path class="st7" d="M33,23.6l-8.8,4.8v2.8l8.8-4.8V23.6z"/>
		<path class="st7" d="M24.3,28.5l-8.8-5.3l8.8-4.8l8.8,5.3C33.1,23.6,24.3,28.5,24.3,28.5z"/>
		<path class="st6" d="M25.5,18v0.8c0,0.1,0,0.1-0.1,0.1c-0.1,0.1-0.3,0.1-0.4,0c0,0-0.1-0.1-0.1-0.1V18H25.5z"/>
		<path d="M22.7,16.4l5.3-3l0.9,1L28,14.9v0.5l-4.3,2.5v1.5l-0.9-1V16.4L22.7,16.4z"/>
		<path class="st7" d="M23.7,17.4l5.3-3v2l-5.3,3V17.4z"/>
		<path class="st8" d="M24.3,28.4l-8.8-5.3v-7.6l6.3,3.7v-7l-8.9-5.2v17.3l11.4,6.8L24.3,28.4L24.3,28.4z"/>
		<path class="st8" d="M21.7,2.3l-8.8,4.8l8.9,5.2l8.8-4.8L21.7,2.3z"/>
		<path class="st6" d="M21.8,12.3l8.8-4.8v7l-8.8,4.8L21.8,12.3z"/>
		<path class="st9" d="M17.9,13.6l0.4-0.2c0.2-0.1,0.4,0,0.5,0.1c0.5,0.3,0.8,0.8,0.8,1.4c0,0.2-0.1,0.4-0.3,0.5l-0.5,0.2l0.1-0.2
			c-0.1,0-0.1,0-0.1-0.1c-0.5-0.3-0.8-0.8-0.8-1.4c0-0.1,0-0.2,0.1-0.3L17.9,13.6z"/>
		<ellipse transform="matrix(0.866 -0.5 0.5 0.866 -4.828 11.1258)" class="st6" cx="18.3" cy="14.6" rx="0.6" ry="1.1"/>
		<path d="M27.8,16.4c0-0.1,0-0.1,0.1-0.2c0-0.1,0.1-0.1,0.2-0.2c0,0,0.1,0,0.1,0l3.4,1.6l0.1,0.1c0,0.1,0,0.1,0,0.2
			c0,0.2-0.1,0.4-0.3,0.6c-0.1,0-0.1,0-0.2,0L27.8,16.4C27.9,16.4,27.9,16.4,27.8,16.4L27.8,16.4z"/>
		<path d="M31.3,17.7c0.1,0,0.1-0.1,0.2,0c0.1,0,0.1,0,0.1,0.1c0,0,0,0.1,0,0.1c0,0.2-0.1,0.4-0.3,0.6c-0.1,0-0.2,0-0.2,0
			c-0.1,0-0.1-0.1-0.1-0.2C31,18,31.1,17.8,31.3,17.7z"/>
		<path class="st10" d="M31.1,18.2c0-0.2,0.1-0.4,0.3-0.5c0.1,0,0.1,0,0.2,0c0,0,0.1,0,0.1,0.1c0,0.1,0,0.1,0,0.2
			c0,0.2-0.1,0.4-0.3,0.6c-0.1,0-0.2,0-0.2,0C31.1,18.4,31,18.3,31.1,18.2L31.1,18.2z"/>
		<ellipse transform="matrix(0.5 -0.866 0.866 0.5 2.3613 31.9228)" cx="28.8" cy="13.9" rx="0.5" ry="0.3"/>
		<ellipse transform="matrix(0.5 -0.866 0.866 0.5 0.9052 31.0483)" cx="27.3" cy="14.7" rx="0.5" ry="0.3"/>
		<ellipse transform="matrix(0.5 -0.866 0.866 0.5 -0.53 30.2375)" cx="25.9" cy="15.6" rx="0.5" ry="0.3"/>
		<ellipse transform="matrix(0.5 -0.866 0.866 0.5 -1.9501 29.418)" cx="24.5" cy="16.4" rx="0.5" ry="0.3"/>
		<path d="M23.9,13.1l4.6-2.6v2.1l-4.6,2.7V13.1z"/>
		<path class="st6" d="M18.1,23.2l6-3.5l6,3.5l-6,3.5L18.1,23.2z"/>
		<path d="M22.8,21.9l2.1-1.2l-0.4-0.2l-2.1,1.2L22.8,21.9z M23.7,22.5l2.1-1.2L25.4,21l-2.1,1.2L23.7,22.5L23.7,22.5z M24.6,23
			l2.1-1.3l-0.4-0.2l-2.1,1.2L24.6,23z M27.7,22.3l-0.4-0.2l-2.1,1.2l0.4,0.2L27.7,22.3z M26.6,24.1l2.1-1.2l-0.4-0.2l-2.1,1.2
			L26.6,24.1z M20.1,23.5l2.1-1.2L21.8,22l-2.1,1.2L20.1,23.5z M23.2,22.8l-0.4-0.2l-2.1,1.3L21,24L23.2,22.8z M22,24.5l2.1-1.2
			l-0.4-0.2l-2.1,1.2L22,24.5z M22.9,25.1l2.1-1.2l-0.4-0.2l-2.1,1.2L22.9,25.1z M23.8,25.6l2.1-1.2l-0.4-0.2l-2.1,1.2L23.8,25.6z"
			/>
		<path class="st11" d="M26.8,22.6c0.1,0,0.2,0,0.3,0s0.1,0.1,0.1,0.4c0,0.5-0.2,0.5-0.4,0.5h-0.1c-0.2,0-0.3-0.2-0.3-0.5
			s0.2-0.5,0.3-0.5L26.8,22.6 M26.8,22.3h-0.2c0,0,0,0,0,0c-0.4,0.1-0.7,0.5-0.6,1c0.1,0.3,0.3,0.6,0.7,0.7h0.2
			c0.4,0,0.8-0.1,0.8-0.8S27.2,22.3,26.8,22.3L26.8,22.3z"/>
		<path class="st11" d="M23.5,21.6l0.3,1.9c0.1,0.7,0.6,1.2,1.3,1.3c0.8,0.1,1.6-0.5,1.7-1.3v-0.4v-0.3l0.2-1.3L23.5,21.6z"/>
		<ellipse class="st12" cx="25.2" cy="21.6" rx="1.8" ry="1"/>
		<path class="st11" d="M26.6,22c0.3-0.3,0.2-0.7-0.3-1c-0.7-0.4-1.6-0.4-2.3,0c-0.4,0.2-0.6,0.6-0.4,0.9c0.1,0.2,0.2,0.3,0.4,0.4
			c0.7,0.4,1.6,0.4,2.3,0C26.4,22.2,26.5,22.1,26.6,22L26.6,22z"/>
		<path class="st13" d="M26.3,21.6c-0.7-0.4-1.6-0.4-2.3,0c-0.1,0.1-0.2,0.2-0.3,0.3c0.1,0.2,0.2,0.3,0.4,0.4c0.7,0.4,1.6,0.4,2.3,0
			c0.1-0.1,0.2-0.2,0.3-0.3C26.6,21.8,26.4,21.7,26.3,21.6z"/>
		<path class="st14" d="M39.1,10c-0.4,0.1-0.6,0.3-0.7,0.7c-0.1,0.5,0.2,0.9,0.7,0.9c0.4,0,1,0.1,1-0.8C40.1,9.9,39.5,10,39.1,10z"
			/>
		<path class="st15" d="M36.1,9.4l0.3,1.9c0.1,0.7,0.6,1.2,1.3,1.3c0.8,0.1,1.6-0.5,1.7-1.3V11v-0.3l0.2-1.3L36.1,9.4z"/>
		<ellipse class="st12" cx="37.7" cy="9.4" rx="1.8" ry="1"/>
		<path class="st15" d="M38.9,8.7c-0.7-0.4-1.6-0.4-2.3,0c-0.4,0.3-0.6,0.6-0.4,0.9c0.1,0.2,0.2,0.3,0.4,0.4c0.7,0.4,1.5,0.4,2.3,0
			c0.1-0.1,0.2-0.2,0.3-0.3C39.4,9.4,39.3,9,38.9,8.7z"/>
		<path class="st13" d="M39.2,9.7c-0.1-0.2-0.2-0.3-0.4-0.4c-0.7-0.4-1.6-0.4-2.3,0c-0.1,0.1-0.2,0.2-0.3,0.3
			c0.1,0.2,0.3,0.3,0.4,0.4c0.7,0.4,1.6,0.4,2.3,0C39,10,39.1,9.9,39.2,9.7L39.2,9.7z"/>
		<path class="st11" d="M41.4,14.9c0.1,0,0.2,0,0.3,0c0.1,0.1,0.1,0.3,0.1,0.4c0,0.5-0.2,0.5-0.4,0.5h-0.1c-0.2,0-0.3-0.2-0.3-0.5
			s0.2-0.5,0.3-0.5L41.4,14.9 M41.4,14.6h-0.2c0,0,0,0,0,0c-0.5,0.1-0.8,0.5-0.7,1c0.1,0.3,0.3,0.6,0.7,0.7h0.1c0.4,0,0.8,0,0.8-0.8
			C42.2,14.6,41.8,14.6,41.4,14.6L41.4,14.6z"/>
		<path class="st11" d="M38.1,13.9l0.3,1.9c0.1,0.4,0.3,0.8,0.6,1c0.2,0.2,0.4,0.3,0.7,0.3c0.8,0.1,1.6-0.5,1.7-1.3v-0.4v-0.3
			l0.2-1.3L38.1,13.9z"/>
		<ellipse class="st12" cx="39.8" cy="13.9" rx="1.8" ry="1"/>
		<path class="st11" d="M40.9,13.2c-0.7-0.4-1.6-0.4-2.3,0c-0.4,0.3-0.6,0.6-0.4,0.9c0.1,0.2,0.2,0.3,0.4,0.4c0.7,0.4,1.6,0.4,2.3,0
			c0.1-0.1,0.2-0.2,0.3-0.3C41.5,13.9,41.4,13.5,40.9,13.2z"/>
		<path class="st13" d="M40.9,13.8c-0.7-0.4-1.6-0.4-2.3,0c-0.1,0.1-0.2,0.2-0.3,0.3c0.1,0.2,0.2,0.3,0.4,0.4c0.7,0.4,1.6,0.4,2.3,0
			c0.1-0.1,0.2-0.2,0.3-0.3C41.2,14.1,41,13.9,40.9,13.8z"/>
		<path class="st11" d="M47.7,12.5c0.1,0,0.2,0,0.3,0.1C48,12.7,48,12.8,48,13c0,0.5-0.2,0.5-0.4,0.5h-0.2c-0.2,0-0.3-0.2-0.3-0.5
			s0.2-0.5,0.3-0.5L47.7,12.5 M47.6,12.2h-0.1c0,0,0,0,0,0c-0.4,0.1-0.7,0.5-0.6,1c0.1,0.3,0.3,0.6,0.7,0.7h0.2
			c0.4,0,0.8-0.1,0.8-0.8s-0.3-0.8-0.7-0.8L47.6,12.2z"/>
		<path class="st11" d="M44.3,11.5l0.3,1.9c0.1,0.4,0.3,0.7,0.6,1c0.7,0.5,1.6,0.4,2.1-0.3c0.2-0.2,0.3-0.5,0.3-0.7v-0.4v-0.3
			l0.2-1.3L44.3,11.5z"/>
		<ellipse class="st12" cx="46" cy="11.5" rx="1.8" ry="1"/>
		<path class="st11" d="M47.5,11.8c0.2-0.4,0-0.8-0.4-1c-0.7-0.4-1.6-0.4-2.3,0c-0.4,0.3-0.6,0.6-0.4,0.9c0.1,0.2,0.2,0.3,0.4,0.4
			c0.7,0.4,1.6,0.4,2.3,0C47.3,12.1,47.4,12,47.5,11.8C47.5,11.9,47.5,11.8,47.5,11.8z"/>
		<path class="st13" d="M47.1,11.5c-0.7-0.4-1.6-0.4-2.3,0c-0.1,0.1-0.2,0.2-0.3,0.3c0.1,0.2,0.2,0.3,0.4,0.4c0.7,0.4,1.6,0.4,2.3,0
			c0.1-0.1,0.2-0.2,0.3-0.3C47.4,11.7,47.3,11.6,47.1,11.5z"/>
		<path class="st1" d="M63.6,12.5l-1.4,0.8v19.8l1.4-0.8"/>
		<path class="st2" d="M62.1,32.2v0.8"/>
		<path class="st2" d="M20.2,56.5v0.8"/>
		<g class="st3">
			<ellipse class="st4" cx="87.9" cy="52.2" rx="9.6" ry="5.5"/>
		</g>
		<path class="st16" d="M91.2,27.7c0,0.4-0.1,0.7-0.3,1c-0.2,0.3-0.3,0.7-0.2,1.1c0.3,0.3,0.7,0.5,1.2,0.6c0.3-0.1,0.6-0.3,0.8-0.5
			c0-0.7,0-1.3-0.1-2L91.2,27.7z"/>
		<path d="M88.3,48.4c0,0-0.3,2-0.3,2.2s3.9,2.7,4.9,2.1c0.7-0.4-2.5-3.6-2.5-3.6L88.3,48.4z M84,50.8c0,0-0.3,2-0.3,2.2
			s3.7,3.1,4.6,2.5s-2.2-4-2.2-4L84,50.8z"/>
		<path d="M83.6,30.4l0.1,21.3c0,0,0.1,0.7,1.6,0.7c1.6,0,1.5-0.5,1.5-0.5L87.6,35h0.1l0.4,14.3c0,0,0.1,0.7,1.6,0.7
			s1.5-0.6,1.5-0.6l-0.1-19.7L83.6,30.4z"/>
		<path class="st12" d="M90,14.7c-1.6,0.2,0,3.8,0.1,7.5c0.1,2.2,0.4,4.3,0.9,6.4c0.5,0.5,1.9-0.2,1.9-0.8c0,0-0.9-10-1-10.8
			C91.6,14.9,90.3,14.7,90,14.7L90,14.7z"/>
		<path d="M83.5,31.3c-0.3-0.3-0.9-13.6-0.9-13.6c2.2-1.6,4.8-2.7,7.5-3c0.6,0,1.6,1.1,1.6,2.7c0,0.6-0.3,3.2-0.2,5.8
			c0,3.1,0.2,6.3,0.2,6.3C90.6,32.3,84.3,32.1,83.5,31.3z"/>
		<path class="st12" d="M86.4,15.6c-0.3,0.1-0.6,0.2-0.9,0.4c-0.1,0.1-0.2,0.3-0.2,0.4c-0.2,0.7,1.6,4.7,1.9,15.3
			c1.2-0.1,2.4-0.4,3.4-1c-0.1-1.1-0.8-11.3-0.8-12.4c-0.1-2.5-1.3-2.9-1.3-2.9L86.4,15.6z"/>
		<path class="st16" d="M86,12.8c0,1.2-0.1,2.3-0.4,3.5c0.3,0.5,0.7,0.8,1.3,0.9c0.9,0.3,2.1-0.1,2-0.8c-0.1-0.9-0.3-2.5-0.3-2.5
			L86,12.8z"/>
		<path class="st16" d="M86.8,7c-2.3,0.4-2.7,3.9-1.7,5.7c1.3,2.1,3.6,2.7,4.3,2.1s0.9-3.6,0.9-3.6C90.5,8.5,89.4,6.5,86.8,7z"/>
		<path d="M85.9,13.7c0-0.8-0.5-2-0.3-2.7c0.4,0.7,0.6,1.4,0.7,2.2c0.1-1.1,0.6-3.1,1-3.1c0.5,0.1,2.3,1,2.7,0.7
			c0.5-0.5,0.7-1.3,0.4-1.9c-0.3-0.7-0.7-1.2-1.3-1.6c-0.6-0.3-1.4-0.5-2.1-0.5c-1.7,0-2.6,1.9-2.7,2.6C84,11,84.6,12.7,85.9,13.7z"
			/>
		<path d="M90.6,26.6h0.2c0.1,0,0.2,0.1,0.2,0.3s-0.1,0.3-0.2,0.3h-0.1c-0.2,0-0.3-0.1-0.3-0.3c-0.1-0.2,0-0.3,0-0.3
			S90.4,26.6,90.6,26.6 M90.6,26.2c-0.3,0-0.6,0-0.6,0.7c0,0.7,0.4,0.7,0.7,0.7h0.1c0.3-0.1,0.5-0.3,0.6-0.6c0,0,0,0,0,0
			c0.1-0.4-0.2-0.7-0.6-0.8L90.6,26.2L90.6,26.2z"/>
		<path class="st16" d="M88.8,28.1c0,0,2,0.2,2.2,0s0.8-1.4,0.6-1.6c-0.2-0.2-0.7-0.2-0.7-0.2c-0.1-0.1-0.3-0.2-0.4-0.3
			c-0.2-0.1-1.4,0-1.4,0C88.2,26.4,88.8,28.1,88.8,28.1z"/>
		<path class="st12" d="M81.2,24.5v1.6c0,2.3,7.6,2,7.6,2c0.7-0.3,0.5-2.1,0.5-2.1s-5.4,0.2-5.5-0.9c-0.1-1.9,0-3.8,0.2-5.6
			c0-0.8-0.5-1.6-1.3-1.8C81.6,18.3,81.4,19,81.2,24.5z"/>
		<path class="st12" d="M86.4,17.2l1.5,0.4l0.3-0.1l0.4-0.2l0.3-0.3v-0.4l-0.1-0.7l-0.1,0.4l-0.4,0.4l-0.2,0.8l-0.3-0.8h-0.4
			l-1.2-0.5c0,0-0.6-0.8-0.7-0.7c-0.1,0.3-0.2,0.7-0.3,1L86.4,17.2z"/>
		<polygon class="st12" points="85.8,15.6 85.5,15.4 85.8,15.4 		"/>
		<polygon class="st17" points="88.7,17 88.9,17.6 88.1,17.5 87.3,18 87.2,17.2 88.1,17.4 		"/>
		<polygon class="st18" points="60.9,58.4 74.1,66.1 74.1,90.1 117.6,65 117.6,41 74.6,65.8 117.6,41 104.3,33.3 		"/>
		<path class="st19" d="M60.9,58.5L74.1,66v24l-13.2-7.5V58.5z"/>
	</g>
</g>
</svg>
