<svg xmlns="http://www.w3.org/2000/svg" viewBox="0 0 60.73 75.66"><defs><style>.cls-1{fill:#ff9958;}.cls-1,.cls-2{fill-rule:evenodd;}.cls-2{fill:#f7ce72;}.cls-3{opacity:0.3;}.cls-4{fill:#020005;}.cls-5{fill:#ffcb8d;}.cls-6{fill:#2c3644;}.cls-7{fill:#020202;}.cls-8{fill:#fff;}</style></defs><title>收银</title><g id="图层_2" data-name="图层 2"><g id="收银"><polygon class="cls-1" points="13.77 45.22 56.71 20.36 43.47 12.64 0 37.81 13.23 45.53 13.23 69.47 56.73 44.35 56.73 20.41 13.77 45.22"/><path class="cls-2" d="M0,37.83l13.23,7.5V69.39L0,61.88Z"/><g class="cls-3"><ellipse class="cls-4" cx="45.67" cy="67.02" rx="15.06" ry="8.64"/></g><path d="M52.86,66.44c-2.38-.18-4-1.26-5,.37-.43.64,4,2.94,5.22,3.29a1.74,1.74,0,0,0,1.89-.57V66.66S54.17,66.55,52.86,66.44Z"/><path d="M45.2,23.44a2.51,2.51,0,0,1-1.2.3,2.05,2.05,0,0,1-.81-.16l-.11,0-3.35-1.94a.91.91,0,0,1-.24-.2c-.25-.32-.11-.73.4-1A3.78,3.78,0,0,1,42,20a4.86,4.86,0,0,1,1.77.66,4.78,4.78,0,0,1,1.35,1.3l.2.28c.34.61.45.87-.17,1.23Z"/><path d="M43.19,23.58l-.11,0-3.35-1.94a.91.91,0,0,1-.24-.2l.37.09A6.64,6.64,0,0,1,43.19,23.58Z"/><path class="cls-5" d="M45.53,11.65A29,29,0,0,1,46,15.6c2.73,1.14,4.19-.44,4.19-.44l-.87-4.46S45.29,11.13,45.53,11.65Z"/><path class="cls-5" d="M41.59,23.5a12.14,12.14,0,0,1-13.93,5.25l-1.5-.83-.84-.24a2.47,2.47,0,0,1-1.48-1.13,1.07,1.07,0,0,1,.37-1.47,1,1,0,0,1,.37-.14l.54-.11a1.48,1.48,0,0,1,1.39.44L28,26.85l1.25.39s7.92-.66,9.67-6.18ZM52.75,7.73c-.69,2.76-2.42,5.09-5.5,5.09-3.87,0-3.76-2.39-3.76-6.26A9,9,0,0,1,44,3.65l.91.7c0,.1.65,0,.66.1.26,2.27.22,1.47.22,1.47l.31-.08,1-.22Z"/><path class="cls-6" d="M43.7,3.06c-.11,1.15,1.43,2.15,1.43,2.15V8.59a1,1,0,0,1,.54-.28c.82,0,.35-2.75,1.32-2.1S47,8.9,47,8.9a13.48,13.48,0,0,0,1.29,2.54c1.32.44,1.39.8,1.39.8a6.15,6.15,0,0,0,2.95-3.76c1.12-3.11.83-4.72,0-6.07C49.83-2.2,43.92.83,43.7,3.06Z"/><path class="cls-5" d="M40.21,19.52c-.47.44-1,.93-1.5,1.42l-.94-.54-.84-.23a2.48,2.48,0,0,1-1.45-1.11,1.11,1.11,0,0,1,.43-1.5h0a1.15,1.15,0,0,1,.31-.11l.54-.11a1.51,1.51,0,0,1,1.39.45l1.47,1.54Zm2.5,18.56L39,52.52l-.4,11.54A1.41,1.41,0,0,0,40,65.14a2.07,2.07,0,0,0,1.7-.71l1.15-8.59,5.08-11.49,1-.54,2.68,21.72s0,1.08,1.61,1.08,1.72-1,1.72-1L53.82,36.22Z"/><path class="cls-7" d="M45,51l3.53-6.2.47-.64.51,8.37c1.61-.09,4.32.22,5.44-.78l-.86-15.61-11.67,2-3.22,12a.74.74,0,0,0,.59.75c1.56.27,3.93.71,5.19.09Z"/><path d="M39.66,65.33c-2.38-.18-4.26-1.34-5,.37-.31.7,4,2.94,5.23,3.29a1.72,1.72,0,0,0,1.88-.57V65.55S41,65.44,39.66,65.33Z"/><path class="cls-8" d="M51.54,65.4l.07,1.22s0,1.07,1.61,1.07,1.72-1,1.72-1V65.3A3.71,3.71,0,0,1,51.54,65.4ZM38.46,64l0,1.37A1.41,1.41,0,0,0,40,66.39a2,2,0,0,0,1.7-.72L41.73,64A4.49,4.49,0,0,1,38.46,64Z"/><path class="cls-8" d="M54.38,37.29c-1.21,3.42-11,3.4-12.49,1.47l.19-15.11-.85.79a5.63,5.63,0,0,1-3-3l.45-.48c.53-.54,1-1,1.49-1.44a17.74,17.74,0,0,1,1.61-1.4V18a28,28,0,0,1,9.34-5.12c1.32,0,3.06.94,3.06,5,0,1.8.09,3.09.15,6.58.07,4.15,0,12.84,0,12.84Z"/><path class="cls-7" d="M39.19,50.15s-.55,1.89-.64,2.39-.38,11.29-.38,11.29a4.73,4.73,0,0,0,1,.61,14.48,14.48,0,0,0,1.75,0l1-.27.88-8.33L45,51"/><path class="cls-7" d="M49.5,52.54,51,65.3a6.73,6.73,0,0,0,.76.62,10,10,0,0,0,1.24.21l1.4-.21.79-.36-.49-7.31.25-6.49"/><path class="cls-7" d="M43.19,16.93c-.34.38-1.11,6.72-1.11,6.72l-.49,14.17a7.84,7.84,0,0,0,1.9,1,12.5,12.5,0,0,0,3.27.63A32.51,32.51,0,0,0,51.2,39a14.44,14.44,0,0,0,2.16-1.27l1.3-1-.27-21.12-1.64-2.09-1.6-.56-3.89,1.58S43.54,16.55,43.19,16.93Z"/><path class="cls-8" d="M45.62,15.34s-.26-1.16,0-1.27a18,18,0,0,1,1.91-.29l2.23-1a1.92,1.92,0,0,1,.09-.19c0-.08.28.5.26.61a3.55,3.55,0,0,1-.41.54l-1.83.89-1.09.44Z"/><polygon class="cls-8" points="49.7 12.51 49.77 12.82 49.85 12.63 49.7 12.51"/></g></g></svg>