<svg xmlns="http://www.w3.org/2000/svg" xmlns:xlink="http://www.w3.org/1999/xlink" viewBox="0 0 74.22 61.09"><defs><style>.cls-1{opacity:0.3;}.cls-2{fill:#020005;}.cls-3{fill:#ff9958;}.cls-4{fill:#ffb382;}.cls-5{fill:#fff;}.cls-6{fill:url(#未命名的渐变_119);}.cls-7{fill:url(#未命名的渐变_119-2);}.cls-8{fill:url(#未命名的渐变_119-3);}.cls-9{fill:url(#未命名的渐变_116);}.cls-10{fill:#001d74;}.cls-11{fill:#13619b;}.cls-12{fill:#e0e0e2;}.cls-13{fill:#081d33;}.cls-14{fill:#2f2f33;}.cls-15{fill:#3e3d43;}.cls-16{fill:#2e2e30;}.cls-17{fill:#1d1d1f;}.cls-18{fill:none;}.cls-19{fill:#595860;}.cls-20{fill:#898890;}.cls-21{fill:#378b4f;}.cls-22{fill:#9fa8eb;}.cls-23{fill:#7988d3;}.cls-24{fill:#f9f0c5;}.cls-25{fill:#382205;}.cls-26{fill:#7f7f7f;}.cls-27{fill:url(#未命名的渐变_119-4);}.cls-28{fill:url(#未命名的渐变_119-5);}.cls-29{fill:#109a83;}.cls-30{fill:url(#未命名的渐变_119-6);}.cls-31{fill:url(#未命名的渐变_119-7);}.cls-32{fill:url(#未命名的渐变_119-8);}.cls-33{fill:url(#未命名的渐变_119-9);}.cls-34{fill:url(#未命名的渐变_119-10);}.cls-35{fill:url(#未命名的渐变_119-11);}.cls-36{fill:url(#未命名的渐变_119-12);}.cls-37{fill:url(#未命名的渐变_119-13);}.cls-38{fill:url(#未命名的渐变_119-14);}.cls-39{fill:url(#未命名的渐变_119-15);}.cls-40{fill:url(#未命名的渐变_119-16);}.cls-41{fill:url(#未命名的渐变_119-17);}.cls-42{fill:url(#未命名的渐变_119-18);}.cls-43{fill:url(#未命名的渐变_119-19);}.cls-44{fill:url(#未命名的渐变_119-20);}.cls-45{fill:url(#未命名的渐变_119-21);}.cls-46{fill:url(#未命名的渐变_119-22);}.cls-47{fill:url(#未命名的渐变_119-23);}.cls-48{fill:url(#未命名的渐变_119-24);}.cls-49{fill:url(#未命名的渐变_119-25);}.cls-50{fill:url(#未命名的渐变_119-26);}.cls-51{fill:url(#未命名的渐变_119-27);}.cls-52{fill:url(#未命名的渐变_119-28);}.cls-53{fill:url(#未命名的渐变_119-29);}.cls-54{fill:url(#未命名的渐变_119-30);}.cls-55{fill:url(#未命名的渐变_119-31);}.cls-56{fill:url(#未命名的渐变_119-32);}.cls-57{fill:url(#未命名的渐变_119-33);}.cls-58{fill:url(#未命名的渐变_119-34);}.cls-59{fill:url(#未命名的渐变_119-35);}.cls-60{fill:url(#未命名的渐变_119-36);}.cls-61{fill:url(#未命名的渐变_119-37);}.cls-62{fill:url(#未命名的渐变_119-38);}.cls-63{fill:url(#未命名的渐变_119-39);}.cls-64{fill:url(#未命名的渐变_119-40);}.cls-65{fill:url(#未命名的渐变_119-41);}.cls-66{fill:url(#未命名的渐变_119-42);}.cls-67{fill:url(#未命名的渐变_119-43);}.cls-68{fill:url(#未命名的渐变_119-44);}.cls-69{fill:url(#未命名的渐变_119-45);}.cls-70{fill:url(#未命名的渐变_119-46);}.cls-71{fill:url(#未命名的渐变_119-47);}.cls-72{fill:url(#未命名的渐变_119-48);}.cls-73{fill:url(#未命名的渐变_119-49);}.cls-74{fill:url(#未命名的渐变_119-50);}.cls-75{fill:url(#未命名的渐变_119-51);}.cls-76{fill:url(#未命名的渐变_119-52);}.cls-77{fill:url(#未命名的渐变_119-53);}.cls-78{fill:url(#未命名的渐变_119-54);}.cls-79{fill:url(#未命名的渐变_119-55);}.cls-80{fill:url(#未命名的渐变_119-56);}.cls-81{fill:url(#未命名的渐变_119-57);}.cls-82{fill:url(#未命名的渐变_119-58);}.cls-83{fill:url(#未命名的渐变_119-59);}.cls-84{fill:url(#未命名的渐变_119-60);}.cls-85{fill:url(#未命名的渐变_119-61);}.cls-86{fill:url(#未命名的渐变_119-62);}.cls-87{fill:url(#未命名的渐变_119-63);}.cls-88{fill:url(#未命名的渐变_119-64);}.cls-89{fill:url(#未命名的渐变_119-65);}.cls-90{fill:url(#未命名的渐变_119-66);}.cls-91{fill:url(#未命名的渐变_119-67);}.cls-92{fill:url(#未命名的渐变_119-68);}.cls-93{fill:url(#未命名的渐变_119-69);}.cls-94{fill:url(#未命名的渐变_119-70);}.cls-95{fill:url(#未命名的渐变_119-71);}.cls-96{fill:url(#未命名的渐变_119-72);}.cls-97{fill:url(#未命名的渐变_119-73);}.cls-98{fill:url(#未命名的渐变_119-74);}.cls-99{fill:url(#未命名的渐变_119-75);}.cls-100{fill:url(#未命名的渐变_119-76);}.cls-101{fill:url(#未命名的渐变_119-77);}.cls-102{fill:url(#未命名的渐变_119-78);}.cls-103{fill:url(#未命名的渐变_119-79);}.cls-104{fill:url(#未命名的渐变_119-80);}.cls-105{fill:url(#未命名的渐变_119-81);}.cls-106{fill:url(#未命名的渐变_119-82);}.cls-107{fill:url(#未命名的渐变_119-83);}.cls-108{fill:url(#未命名的渐变_119-84);}.cls-109{fill:url(#未命名的渐变_119-85);}</style><linearGradient id="未命名的渐变_119" x1="43.89" y1="38.9" x2="42.12" y2="37.6" gradientTransform="matrix(-1, 0, 0, 1, 74.22, -8.24)" gradientUnits="userSpaceOnUse"><stop offset="0" stop-color="#fff"/><stop offset="1" stop-color="#b2c5e5"/></linearGradient><linearGradient id="未命名的渐变_119-2" x1="37.93" y1="42.16" x2="36.6" y2="41.18" xlink:href="#未命名的渐变_119"/><linearGradient id="未命名的渐变_119-3" x1="-29.72" y1="44.38" x2="-34.01" y2="47.55" gradientTransform="translate(5.7 79.71) rotate(180)" xlink:href="#未命名的渐变_119"/><linearGradient id="未命名的渐变_116" x1="-32.8" y1="47.29" x2="-32.79" y2="48.66" gradientTransform="translate(5.7 79.71) rotate(180)" gradientUnits="userSpaceOnUse"><stop offset="0" stop-color="#423f77"/><stop offset="1" stop-color="#670063"/></linearGradient><linearGradient id="未命名的渐变_119-4" x1="48.13" y1="56.72" x2="56.65" y2="56.72" gradientTransform="translate(88.34 79.71) rotate(180)" xlink:href="#未命名的渐变_119"/><linearGradient id="未命名的渐变_119-5" x1="25.26" y1="22.82" x2="48.1" y2="22.82" xlink:href="#未命名的渐变_119"/><linearGradient id="未命名的渐变_119-6" x1="25.83" y1="30.27" x2="48.23" y2="30.27" xlink:href="#未命名的渐变_119"/><linearGradient id="未命名的渐变_119-7" x1="52.74" y1="35.52" x2="46.52" y2="30.93" xlink:href="#未命名的渐变_119"/><linearGradient id="未命名的渐变_119-8" x1="52.74" y1="35.35" x2="46.57" y2="30.8" xlink:href="#未命名的渐变_119"/><linearGradient id="未命名的渐变_119-9" x1="45.04" y1="34.57" x2="44.4" y2="34.1" xlink:href="#未命名的渐变_119"/><linearGradient id="未命名的渐变_119-10" x1="45.66" y1="34.15" x2="45.14" y2="33.76" xlink:href="#未命名的渐变_119"/><linearGradient id="未命名的渐变_119-11" x1="46.26" y1="33.81" x2="45.72" y2="33.41" xlink:href="#未命名的渐变_119"/><linearGradient id="未命名的渐变_119-12" x1="46.8" y1="33.46" x2="46.28" y2="33.08" xlink:href="#未命名的渐变_119"/><linearGradient id="未命名的渐变_119-13" x1="47.33" y1="33.17" x2="46.81" y2="32.79" xlink:href="#未命名的渐变_119"/><linearGradient id="未命名的渐变_119-14" x1="47.88" y1="32.85" x2="47.36" y2="32.47" xlink:href="#未命名的渐变_119"/><linearGradient id="未命名的渐变_119-15" x1="48.46" y1="32.51" x2="47.94" y2="32.12" xlink:href="#未命名的渐变_119"/><linearGradient id="未命名的渐变_119-16" x1="49" y1="32.22" x2="48.47" y2="31.83" xlink:href="#未命名的渐变_119"/><linearGradient id="未命名的渐变_119-17" x1="49.54" y1="31.9" x2="49.02" y2="31.51" xlink:href="#未命名的渐变_119"/><linearGradient id="未命名的渐变_119-18" x1="50.1" y1="31.58" x2="49.57" y2="31.2" xlink:href="#未命名的渐变_119"/><linearGradient id="未命名的渐变_119-19" x1="50.65" y1="31.26" x2="50.13" y2="30.87" xlink:href="#未命名的渐变_119"/><linearGradient id="未命名的渐变_119-20" x1="51.2" y1="30.94" x2="50.68" y2="30.55" xlink:href="#未命名的渐变_119"/><linearGradient id="未命名的渐变_119-21" x1="51.74" y1="30.66" x2="51.21" y2="30.26" xlink:href="#未命名的渐变_119"/><linearGradient id="未命名的渐变_119-22" x1="52.31" y1="30.3" x2="51.79" y2="29.91" xlink:href="#未命名的渐变_119"/><linearGradient id="未命名的渐变_119-23" x1="46.14" y1="35.16" x2="45.5" y2="34.68" xlink:href="#未命名的渐变_119"/><linearGradient id="未命名的渐变_119-24" x1="46.76" y1="34.74" x2="46.24" y2="34.36" xlink:href="#未命名的渐变_119"/><linearGradient id="未命名的渐变_119-25" x1="47.33" y1="34.4" x2="46.81" y2="34.02" xlink:href="#未命名的渐变_119"/><linearGradient id="未命名的渐变_119-26" x1="47.85" y1="34.14" x2="47.33" y2="33.75" xlink:href="#未命名的渐变_119"/><linearGradient id="未命名的渐变_119-27" x1="48.42" y1="33.78" x2="47.9" y2="33.4" xlink:href="#未命名的渐变_119"/><linearGradient id="未命名的渐变_119-28" x1="48.98" y1="33.45" x2="48.46" y2="33.06" xlink:href="#未命名的渐变_119"/><linearGradient id="未命名的渐变_119-29" x1="49.5" y1="33.17" x2="48.98" y2="32.79" xlink:href="#未命名的渐变_119"/><linearGradient id="未命名的渐变_119-30" x1="50.08" y1="32.82" x2="49.56" y2="32.44" xlink:href="#未命名的渐变_119"/><linearGradient id="未命名的渐变_119-31" x1="50.64" y1="32.49" x2="50.12" y2="32.1" xlink:href="#未命名的渐变_119"/><linearGradient id="未命名的渐变_119-32" x1="51.16" y1="32.21" x2="50.64" y2="31.83" xlink:href="#未命名的渐变_119"/><linearGradient id="未命名的渐变_119-33" x1="51.74" y1="31.87" x2="51.22" y2="31.48" xlink:href="#未命名的渐变_119"/><linearGradient id="未命名的渐变_119-34" x1="52.29" y1="31.55" x2="51.77" y2="31.16" xlink:href="#未命名的渐变_119"/><linearGradient id="未命名的渐变_119-35" x1="52.83" y1="31.24" x2="52.31" y2="30.86" xlink:href="#未命名的渐变_119"/><linearGradient id="未命名的渐变_119-36" x1="53.38" y1="30.92" x2="52.86" y2="30.54" xlink:href="#未命名的渐变_119"/><linearGradient id="未命名的渐变_119-37" x1="46.72" y1="35.52" x2="46.04" y2="35.02" xlink:href="#未命名的渐变_119"/><linearGradient id="未命名的渐变_119-38" x1="47.43" y1="34.97" x2="46.92" y2="34.59" xlink:href="#未命名的渐变_119"/><linearGradient id="未命名的渐变_119-39" x1="47.98" y1="34.66" x2="47.46" y2="34.28" xlink:href="#未命名的渐变_119"/><linearGradient id="未命名的渐变_119-40" x1="48.53" y1="34.35" x2="48.01" y2="33.97" xlink:href="#未命名的渐变_119"/><linearGradient id="未命名的渐变_119-41" x1="49.1" y1="34.02" x2="48.57" y2="33.63" xlink:href="#未命名的渐变_119"/><linearGradient id="未命名的渐变_119-42" x1="49.6" y1="33.75" x2="49.08" y2="33.37" xlink:href="#未命名的渐变_119"/><linearGradient id="未命名的渐变_119-43" x1="50.19" y1="33.39" x2="49.67" y2="33.01" xlink:href="#未命名的渐变_119"/><linearGradient id="未命名的渐变_119-44" x1="50.77" y1="33.03" x2="50.25" y2="32.65" xlink:href="#未命名的渐变_119"/><linearGradient id="未命名的渐变_119-45" x1="51.29" y1="32.76" x2="50.77" y2="32.38" xlink:href="#未命名的渐变_119"/><linearGradient id="未命名的渐变_119-46" x1="51.86" y1="32.41" x2="51.34" y2="32.03" xlink:href="#未命名的渐变_119"/><linearGradient id="未命名的渐变_119-47" x1="52.43" y1="32.07" x2="51.91" y2="31.69" xlink:href="#未命名的渐变_119"/><linearGradient id="未命名的渐变_119-48" x1="52.96" y1="31.78" x2="52.44" y2="31.4" xlink:href="#未命名的渐变_119"/><linearGradient id="未命名的渐变_119-49" x1="53.79" y1="31.41" x2="53.11" y2="30.91" xlink:href="#未命名的渐变_119"/><linearGradient id="未命名的渐变_119-50" x1="47.47" y1="35.75" x2="46.68" y2="35.17" xlink:href="#未命名的渐变_119"/><linearGradient id="未命名的渐变_119-51" x1="48.26" y1="35.12" x2="47.74" y2="34.74" xlink:href="#未命名的渐变_119"/><linearGradient id="未命名的渐变_119-52" x1="48.79" y1="34.83" x2="48.27" y2="34.45" xlink:href="#未命名的渐变_119"/><linearGradient id="未命名的渐变_119-53" x1="49.33" y1="34.5" x2="48.8" y2="34.11" xlink:href="#未命名的渐变_119"/><linearGradient id="未命名的渐变_119-54" x1="47.52" y1="36.21" x2="47" y2="35.83" xlink:href="#未命名的渐变_119"/><linearGradient id="未命名的渐变_119-55" x1="48.1" y1="35.84" x2="47.58" y2="35.46" xlink:href="#未命名的渐变_119"/><linearGradient id="未命名的渐变_119-56" x1="48.63" y1="35.5" x2="48.11" y2="35.12" xlink:href="#未命名的渐变_119"/><linearGradient id="未命名的渐变_119-57" x1="49.3" y1="35.16" x2="48.72" y2="34.73" xlink:href="#未命名的渐变_119"/><linearGradient id="未命名的渐变_119-58" x1="52.74" y1="33.17" x2="52.17" y2="32.75" xlink:href="#未命名的渐变_119"/><linearGradient id="未命名的渐变_119-59" x1="51.4" y1="34.46" x2="50.07" y2="33.48" xlink:href="#未命名的渐变_119"/><linearGradient id="未命名的渐变_119-60" x1="49.9" y1="34.18" x2="49.38" y2="33.79" xlink:href="#未命名的渐变_119"/><linearGradient id="未命名的渐变_119-61" x1="50.44" y1="33.87" x2="49.91" y2="33.48" xlink:href="#未命名的渐变_119"/><linearGradient id="未命名的渐变_119-62" x1="51.01" y1="33.54" x2="50.49" y2="33.15" xlink:href="#未命名的渐变_119"/><linearGradient id="未命名的渐变_119-63" x1="51.54" y1="33.24" x2="51.02" y2="32.86" xlink:href="#未命名的渐变_119"/><linearGradient id="未命名的渐变_119-64" x1="52.11" y1="32.91" x2="51.59" y2="32.52" xlink:href="#未命名的渐变_119"/><linearGradient id="未命名的渐变_119-65" x1="52.67" y1="32.57" x2="52.15" y2="32.19" xlink:href="#未命名的渐变_119"/><linearGradient id="未命名的渐变_119-66" x1="53.18" y1="32.3" x2="52.66" y2="31.92" xlink:href="#未命名的渐变_119"/><linearGradient id="未命名的渐变_119-67" x1="53.33" y1="32.83" x2="52.81" y2="32.45" xlink:href="#未命名的渐变_119"/><linearGradient id="未命名的渐变_119-68" x1="53.89" y1="32.5" x2="53.35" y2="32.1" xlink:href="#未命名的渐变_119"/><linearGradient id="未命名的渐变_119-69" x1="54.97" y1="31.89" x2="54.45" y2="31.51" xlink:href="#未命名的渐变_119"/><linearGradient id="未命名的渐变_119-70" x1="54.24" y1="31.84" x2="53.46" y2="31.26" xlink:href="#未命名的渐变_119"/><linearGradient id="未命名的渐变_119-71" x1="52.74" y1="30.75" x2="52.1" y2="30.28" xlink:href="#未命名的渐变_119"/><linearGradient id="未命名的渐变_119-72" x1="52" y1="31.08" x2="51.48" y2="30.7" xlink:href="#未命名的渐变_119"/><linearGradient id="未命名的渐变_119-73" x1="51.49" y1="31.38" x2="50.97" y2="31" xlink:href="#未命名的渐变_119"/><linearGradient id="未命名的渐变_119-74" x1="50.91" y1="31.71" x2="50.39" y2="31.33" xlink:href="#未命名的渐变_119"/><linearGradient id="未命名的渐变_119-75" x1="50.36" y1="32.06" x2="49.82" y2="31.67" xlink:href="#未命名的渐变_119"/><linearGradient id="未命名的渐变_119-76" x1="49.78" y1="32.38" x2="49.26" y2="31.99" xlink:href="#未命名的渐变_119"/><linearGradient id="未命名的渐变_119-77" x1="49.26" y1="32.65" x2="48.74" y2="32.27" xlink:href="#未命名的渐变_119"/><linearGradient id="未命名的渐变_119-78" x1="48.68" y1="33" x2="48.16" y2="32.61" xlink:href="#未命名的渐变_119"/><linearGradient id="未命名的渐变_119-79" x1="48.12" y1="33.34" x2="47.6" y2="32.95" xlink:href="#未命名的渐变_119"/><linearGradient id="未命名的渐变_119-80" x1="47.61" y1="33.61" x2="47.09" y2="33.23" xlink:href="#未命名的渐变_119"/><linearGradient id="未命名的渐变_119-81" x1="47.03" y1="33.96" x2="46.51" y2="33.57" xlink:href="#未命名的渐变_119"/><linearGradient id="未命名的渐变_119-82" x1="46.5" y1="34.25" x2="45.98" y2="33.86" xlink:href="#未命名的渐变_119"/><linearGradient id="未命名的渐变_119-83" x1="45.95" y1="34.57" x2="45.43" y2="34.18" xlink:href="#未命名的渐变_119"/><linearGradient id="未命名的渐变_119-84" x1="45.37" y1="34.92" x2="44.85" y2="34.53" xlink:href="#未命名的渐变_119"/><linearGradient id="未命名的渐变_119-85" x1="54.46" y1="32.14" x2="54.13" y2="31.9" xlink:href="#未命名的渐变_119"/></defs><title>老板</title><g id="图层_2" data-name="图层 2"><g id="办公室"><g class="cls-1"><path class="cls-2" d="M0,35.89H0a1.13,1.13,0,0,0,.34.76A6,6,0,0,0,1,37.2H1L18,47c-4.12-.62-8.73,0-11.9,1.85-4.88,2.82-4.88,7.36,0,10.11s12.73,2.83,17.54,0c3.24-1.85,4.34-4.47,3.24-6.87l12.45,7.15a4.46,4.46,0,0,0,2.27.55,3.58,3.58,0,0,0,1.72-.41l30.2-17.34h0a2,2,0,0,0,.41-.34.87.87,0,0,0,.27-.69h0a1.6,1.6,0,0,0-1-1.38L34.88,17.52A4.48,4.48,0,0,0,32.61,17a3.48,3.48,0,0,0-1.72.42L.76,34.86A1.1,1.1,0,0,0,0,35.89Z"/></g><path class="cls-3" d="M0,20.55l.07,1.38A1.59,1.59,0,0,0,1,23.3L39.42,45.45a4.34,4.34,0,0,0,2.27.55,3.47,3.47,0,0,0,1.72-.41l30.13-17.4a1.21,1.21,0,0,0,.68-1h0l-.06-1.44a1.21,1.21,0,0,1-.28.69c-.14.14-.27.2-.41.34h0L43.34,44.15a4,4,0,0,1-1.72.41A5.07,5.07,0,0,1,39.35,44L1,21.86H1a1.77,1.77,0,0,1-.62-.55A1.19,1.19,0,0,1,0,20.55Z"/><path class="cls-4" d="M0,20.55H0a1.13,1.13,0,0,0,.34.76,6,6,0,0,0,.62.55H1L39.28,44a4.46,4.46,0,0,0,2.27.55,3.58,3.58,0,0,0,1.72-.41L73.54,26.67h0a2,2,0,0,0,.41-.34.87.87,0,0,0,.27-.69h0a1.57,1.57,0,0,0-1-1.37L34.88,2.12a4.39,4.39,0,0,0-2.27-.56A3.48,3.48,0,0,0,30.89,2L.76,19.45A1.19,1.19,0,0,0,0,20.55Z"/><path class="cls-5" d="M29.24,30.53a1,1,0,0,0,.61.13.89.89,0,0,0,.42-.07h.07l1.72-1c.07,0,.07-.07.13-.07s.07-.34-.2-.55a1.63,1.63,0,0,0-1.1-.2,2,2,0,0,0-.9.34,3.47,3.47,0,0,0-.69.69l-.13.14C29,30.18,28.89,30.32,29.24,30.53Z"/><path class="cls-6" d="M30.27,30.59h0l1.79-1c.07,0,.07-.07.13-.07h0l-.2.07A3.24,3.24,0,0,0,30.27,30.59Z"/><path class="cls-7" d="M36.87,33.35H37v.2h-.14v-.2m0-.69c-.34,0-.62,0-.62.75s.42.83.76.83h.14a.86.86,0,0,0,.68-.69.82.82,0,0,0-.68-.89Z"/><path class="cls-8" d="M36.73,32l.21,1.31v.27h0l.07.35a1.43,1.43,0,0,0,1.44,1.23A1.48,1.48,0,0,0,39.9,33.9L40.17,32Z"/><ellipse cx="38.45" cy="31.97" rx="1.72" ry="0.96"/><path class="cls-9" d="M37.08,32.38a.67.67,0,0,0,.34.28,2.5,2.5,0,0,0,2.2,0,1.24,1.24,0,0,0,.42-.41c.13-.28,0-.62-.42-.9a2.5,2.5,0,0,0-2.2,0C36.87,31.63,36.8,32,37.08,32.38Z"/><path class="cls-10" d="M37,32.38a.72.72,0,0,0,.34.28,2.5,2.5,0,0,0,2.2,0,.83.83,0,0,0,.42-.41.7.7,0,0,0-.35-.28,2.5,2.5,0,0,0-2.2,0A.64.64,0,0,0,37,32.38Z"/><path class="cls-11" d="M21.81,48.07l.2,1.58a1,1,0,0,0,1,.21c.62-.28,2.89-1.86,2.62-2.14-.69-.82-1.51-.13-2.75.14A5.44,5.44,0,0,0,21.81,48.07Z"/><path class="cls-12" d="M21.46,47.17c.14.55.21.9.21.9h0a.73.73,0,0,0,.62.34h.07a1.11,1.11,0,0,0,.75-.34h0L23,47A1.65,1.65,0,0,1,21.46,47.17Z"/><path class="cls-11" d="M24.7,49.58l.2,1.65a1.16,1.16,0,0,0,1.17.21c.69-.28,3.1-2,2.75-2.34-.75-.9-1.58-.14-2.95.21C25.18,49.44,24.7,49.58,24.7,49.58Z"/><path class="cls-12" d="M24.7,48.76c.13.55.2.89.2.89h0a.72.72,0,0,0,.62.34h.07a1.09,1.09,0,0,0,.76-.34h0l-.14-1A1.68,1.68,0,0,1,24.7,48.76Z"/><path class="cls-13" d="M21.81,38.3A2.39,2.39,0,0,0,21,36.72a3.22,3.22,0,0,0-1.51-.83h-.55l-.69.07L16,36.1l-.62.07h-.07a7.38,7.38,0,0,1-4.06.27,2,2,0,0,1-.14.41,5.32,5.32,0,0,0,.62,4.06h0a8.64,8.64,0,0,0,3.72-.41,8.13,8.13,0,0,0,1.1-.34c.55-.21,1.17-.42,1.79-.69L19.74,39c.07,1,.21,2,.35,2.95l-.28.07c.21.83.69,2.76.83,3.24L21.32,48a4.38,4.38,0,0,0,2.28-.41l-1.38-6.54Z"/><path class="cls-13" d="M11.76,40.91h0a4.57,4.57,0,0,0,3.72,1.93,11.49,11.49,0,0,0,4.33-.76l.28-.07,1.44-.62.83-.27.55-.21A10.73,10.73,0,0,0,23,42.29a41.77,41.77,0,0,0,.9,4.88l.62,2.55a3.9,3.9,0,0,0,2.2-.62l-1.24-8.67a2.9,2.9,0,0,0-2.82-2.54h-.62l-2.82.2-.69.07h0a9.6,9.6,0,0,1-3.09.35c-1.45-.07-2.89.68-4.54-.55C10.94,37.89,10.52,39.12,11.76,40.91Z"/><path class="cls-14" d="M7,58.39a.66.66,0,0,0,.2.48h.07l.55.34V58.8a1.53,1.53,0,0,0,.62-1.17l.35-.14-.62-.34h0a.59.59,0,0,0-.48.07A1.3,1.3,0,0,0,7,58.39Z"/><ellipse class="cls-15" cx="8.26" cy="58.33" rx="1.03" ry="0.55" transform="translate(-46.39 36.31) rotate(-60)"/><path class="cls-14" d="M21.32,57.35l.76,1.52.55-.28h0a.41.41,0,0,0,.21-.41,1.28,1.28,0,0,0-.62-1,.61.61,0,0,0-.34-.07l-.07.07Z"/><path class="cls-15" d="M21.19,57.77a1.27,1.27,0,0,0,.62,1,.38.38,0,0,0,.62-.35,1.3,1.3,0,0,0-.62-1C21.46,57.22,21.19,57.35,21.19,57.77Z"/><path class="cls-14" d="M20.77,50.2a.61.61,0,0,0,.21.48h.07l.55.35v-.42a1.54,1.54,0,0,0,.62-1.17l.34-.13L21.94,49h0a.42.42,0,0,0-.48.07A1.35,1.35,0,0,0,20.77,50.2Z"/><ellipse class="cls-15" cx="22.04" cy="50.07" rx="1.03" ry="0.55" transform="matrix(0.5, -0.87, 0.87, 0.5, -32.35, 44.12)"/><path class="cls-15" d="M13.35,28.94v.14l1-.55a.07.07,0,0,0,.07-.07v-.07a.07.07,0,0,0-.07.07l-.55.35Z"/><path d="M3.85,39.54h0a.79.79,0,0,0,.21.55l.07.07.07.07,1,.55h.07a.67.67,0,0,0,.69-.07l7.7-4.47L14.1,36a1.16,1.16,0,0,0,.48-.89V28.53a.26.26,0,0,0-.07-.21h-.06l-.9-.55a.23.23,0,0,0-.27,0l-.55.35L5,32.59v7.57ZM6,34.45v4H6l6.61-3.79h0a.5.5,0,0,0,.14-.27V30.53Z"/><path class="cls-16" d="M13.69,35l-1-.55a.5.5,0,0,1-.14.27l1,.55A.5.5,0,0,0,13.69,35Z"/><polygon class="cls-16" points="13.69 30.11 12.66 29.56 12.66 34.45 13.69 35 13.69 30.11"/><path class="cls-16" d="M12.66,29.56l1,.55V30l-1-.55C12.73,29.49,12.73,29.49,12.66,29.56Z"/><polygon class="cls-15" points="13.55 35.2 12.59 34.65 5.5 38.78 6.47 39.33 13.55 35.2"/><path class="cls-16" d="M6.47,39.33l-1-.55a.3.3,0,0,1-.34,0l1,.55A.31.31,0,0,0,6.47,39.33Z"/><path class="cls-16" d="M4,39.61a.79.79,0,0,0,.21.55l.06.07.07.06.9.55H5.3c-.07,0-.07-.06-.14-.06l-.07-.07A.07.07,0,0,0,5,40.64L5,40.57H5v-.41l-1-.55Z"/><path class="cls-15" d="M14,27.43l1,.55.2-.14a.21.21,0,0,1,.28,0l-1-.55a.31.31,0,0,0-.35,0Z"/><path class="cls-15" d="M4.13,33.14l.89.69a.55.55,0,0,1,.28-.28l.62-.34,7.7-4.47.55-.35a.07.07,0,0,0,.07-.07v.07l.21-.07.55-.13.07-.07.27-.28h0a.2.2,0,0,0-.27,0l-.21.14-1-.55-.55.34-.69.35L5,32.59H5l-.62.34C4.27,32.93,4.2,33,4.13,33.14Z"/><path class="cls-16" d="M4,33.55v6.06H4l1,.55V34.1A.61.61,0,0,1,5,33.76l-.89-.69A1.25,1.25,0,0,0,4,33.55Z"/><path class="cls-17" d="M5.09,33.69A.36.36,0,0,0,5,34v6.46H5L5,40.5a.07.07,0,0,1,.07.07l.14.14h0a.78.78,0,0,0,.69-.07l7.7-4.47.48-.28a1.16,1.16,0,0,0,.48-.89V28.46a.23.23,0,0,0-.07-.2h-.2c0,.06-.07.06-.07.06l-.55.35L6,33.14Zm1,5.64C6,39.19,6,39.12,6,39.06V34.38L13.55,30a.08.08,0,0,1,.14.06v4.89a.34.34,0,0,1-.14.27L6.47,39.26a.26.26,0,0,1-.21.07Z"/><path class="cls-17" d="M14.17,28.46V29.7l1-.55a1.17,1.17,0,0,0,.49-.89v-.07a.53.53,0,0,0-.14-.35h0a.21.21,0,0,0-.28,0L15,28l-.83.48Z"/><line class="cls-18" x1="13.83" y1="27.36" x2="13.96" y2="27.43"/><polyline points="14.93 27.98 15.2 28.19 15.41 28.32"/><line class="cls-18" x1="5.09" y1="33.76" x2="5.98" y2="34.45"/><path class="cls-14" d="M6.88,49.37l.76,1.52.55-.28h0a.42.42,0,0,0,.2-.41,1.26,1.26,0,0,0-.62-1,.58.58,0,0,0-.34-.07l-.14.07Z"/><path class="cls-19" d="M14.72,51.64l7.09-4.12a.72.72,0,0,1,.75,0h.07c.07.07.14.13.14.2v1.1c0,.07-.07.21-.14.21l-7.08,4.06-.83-.48v-1Z"/><path class="cls-16" d="M7,47.79c0-.07.07-.2.14-.2h.06a.74.74,0,0,1,.76,0L15,51.71v1.17l-.83.48-7.08-4C7,49.24,7,49.17,7,49.1Z"/><path class="cls-20" d="M14.72,51.64l.83.49,7.08-4.06c.14-.07.21-.14.14-.28a.15.15,0,0,0-.14-.14h-.07a.77.77,0,0,0-.75,0Z"/><path class="cls-20" d="M14.17,52.13l.83-.49L7.91,47.52a.74.74,0,0,0-.76,0H7.09c-.14.07-.21.13-.14.27a.15.15,0,0,0,.14.14Z"/><path class="cls-15" d="M13.28,51.92a.68.68,0,0,1,.48-.69,2.63,2.63,0,0,1,2.47,0,.83.83,0,0,1,.49.69V53a.69.69,0,0,1-.49.69,2.63,2.63,0,0,1-2.47,0,.82.82,0,0,1-.48-.69Z"/><path class="cls-16" d="M15.34,52.74l.83-.48,7.08,4.06c.07.07.14.14.14.21v1.1c0,.07-.07.21-.14.21h-.07a.77.77,0,0,1-.75,0l-7.09-4.06v-1Z"/><path class="cls-20" d="M23.18,56.8h0c.21-.07.28-.13.21-.27a.15.15,0,0,0-.14-.14l-7.08-4.06-.83.48,7.09,4.06A1,1,0,0,0,23.18,56.8Z"/><path class="cls-19" d="M14.58,53.91,7.5,58a.74.74,0,0,1-.76,0H6.67c-.07-.07-.13-.13-.13-.2v-1.1c0-.07.06-.21.13-.21l7.09-4.13.82.48Z"/><path class="cls-20" d="M6.67,56.8h0a.87.87,0,0,0,.83,0l7.08-4.06-.82-.48L6.67,56.32c-.13,0-.2.14-.2.28A.18.18,0,0,0,6.67,56.8Z"/><path class="cls-15" d="M13.76,51a2.58,2.58,0,0,1,2.47,0,.81.81,0,0,1,.49.68h0v.14h0v.07h0v.07h0a.69.69,0,0,1-.49.69,2.63,2.63,0,0,1-2.47,0,.83.83,0,0,1-.48-.69h0v-.07h0v-.07h0v-.07h0A.91.91,0,0,1,13.76,51Z"/><path class="cls-16" d="M13.76,51a.74.74,0,0,0-.48,1,.81.81,0,0,0,.48.48,2.63,2.63,0,0,0,2.47,0,.75.75,0,0,0,.49-1,.83.83,0,0,0-.49-.48A3,3,0,0,0,13.76,51Z"/><path class="cls-15" d="M14,50.68a.46.46,0,0,1,.28-.41,1.72,1.72,0,0,1,1.44,0,.37.37,0,0,1,.28.41v.14h0V51h0v.2h0v.14a.46.46,0,0,1-.28.41,1.72,1.72,0,0,1-1.44,0,.37.37,0,0,1-.28-.41v-.14h0V51h0v-.21h0Z"/><path class="cls-16" d="M14.31,50.2a.46.46,0,0,0-.28.55.55.55,0,0,0,.28.28,1.8,1.8,0,0,0,1.44,0,.48.48,0,0,0,.28-.56.57.57,0,0,0-.28-.27A1.34,1.34,0,0,0,14.31,50.2Z"/><path class="cls-17" d="M14.24,48.48a.36.36,0,0,1,.21-.34,1.17,1.17,0,0,1,1.17,0,.37.37,0,0,1,.2.34h0v1.44h0a.39.39,0,0,1-.2.35,1.22,1.22,0,0,1-1.17,0,.38.38,0,0,1-.21-.35h0V48.48Z"/><path class="cls-21" d="M14.86,49.51c.07.07.14.14.21.14Z"/><path class="cls-22" d="M17.2,41.94v2.83h0c0,.13.07.2.2.34l.21.14H18c.07,0,.14-.07.28-.07l4-2.27,2-1.17.62-.35c-.07-.48-.07-.89-.13-1.37l-.55.21-.83.27c-.55.21-1,.41-1.51.62l-.28.14A11.44,11.44,0,0,1,17.2,41.94Z"/><path d="M17.2,34.86V44.7h0V34.86Z"/><path class="cls-23" d="M17.2,45v3.65l8.87-5.09a2.42,2.42,0,0,0,.9-1,2.61,2.61,0,0,0,.34-1.24,1,1,0,0,0-.28-.75h0L27,40.57l-.07-.07a.94.94,0,0,0-.62,0h-.07a.24.24,0,0,0-.14.07l-7.84,4.54a.26.26,0,0,1-.21.07.3.3,0,0,1-.34,0h-.07c-.07,0-.14-.07-.21-.14Z"/><path class="cls-15" d="M6.74,49.79a1.3,1.3,0,0,0,.62,1A.38.38,0,0,0,8,50.47a1.3,1.3,0,0,0-.62-1C7,49.17,6.74,49.37,6.74,49.79Z"/><path class="cls-24" d="M19.67,28a7.91,7.91,0,0,0,9.08,3.44l1-.55.48-.21a1.48,1.48,0,0,0,1-.75.63.63,0,0,0,.07-.35.74.74,0,0,0-.55-.69l-.34-.06a1,1,0,0,0-.9.27l-1,1-.83.28s-5.16-.41-6.26-4Z"/><path class="cls-24" d="M17.13,20.76c-.14.82-.28,1.72-.35,2.54A2.42,2.42,0,0,1,14,23l.55-2.89S17.27,20.41,17.13,20.76Z"/><path class="cls-24" d="M12.38,17.73C12.86,19.52,14,21,16,21c2.54,0,2.48-1.58,2.48-4.06a5.39,5.39,0,0,0-.28-1.85l-.62.48c0,.07-.41,0-.41.07-.14,1.44-.14,1-.14,1l-.21-.07-.68-.14Z"/><path class="cls-25" d="M16.23,17.11a.88.88,0,0,0-.27,1.1,1.16,1.16,0,0,1,0,.69,11,11,0,0,1-.69,1.24c-.55.62-.89.55-.89.55a4.08,4.08,0,0,1-1.93-2.48c-.69-2-.55-3.09,0-3.92,1.86-3,5.64-1,5.78.41a3.06,3.06,0,0,1-.62,1.52,2.05,2.05,0,0,1-.41.34Z"/><path class="cls-11" d="M11.42,36.51c1.86,1.86,6.67,2.27,7.57,1l.34-9.49a10.38,10.38,0,0,0,4,3.3c2.13.9,5.43.28,5.5.35a1.86,1.86,0,0,0-.34-1.59A13.8,13.8,0,0,1,23.94,29a6.74,6.74,0,0,1-2.55-2.82,9.48,9.48,0,0,0-.89-.82,11.83,11.83,0,0,0-1-.9V24.4A18.81,18.81,0,0,0,13.41,21c-.82,0-2,.62-2,3.24,0,1.17-.07,2-.07,4.26C11.28,31.28,11.42,36.51,11.42,36.51Z"/><path class="cls-22" d="M15.41,49.65a1,1,0,0,1-.14-.48V32.86a2.77,2.77,0,0,1,.55-1.58c.07-.07.14-.2.21-.27l.2-.21a1.24,1.24,0,0,1,.42-.27.83.83,0,0,1,.41-.07h0c0-.07-.07-.07-.07-.14h0l-.27-.14h0l-.21-.07L5.85,23.72a.86.86,0,0,0-.9.06,2.83,2.83,0,0,0-1.24,2.14v16.3a1.56,1.56,0,0,0,.69,1.24l10.25,5.91.48.28Z"/><path class="cls-23" d="M14.72,32.52V49a.63.63,0,0,0,.14.48c0,.07.07.07.07.14l.2.14h.21a.49.49,0,0,0,.34-.14l1.52-.89V44.83h0V30.94c0-.14-.07-.21-.07-.28v-.07h0c0-.06-.07-.06-.07-.13h0L17,30.39h-.27a.89.89,0,0,0-.42.07,1.52,1.52,0,0,0-.41.27l-.21.21c-.06.07-.13.2-.2.27A1.55,1.55,0,0,0,14.72,32.52Z"/><path class="cls-21" d="M17.2,44.83V45l.2.07a1.2,1.2,0,0,1-.2-.28Z"/><path d="M17.61,45.25l-.21-.14C17.47,45.18,17.54,45.25,17.61,45.25Z"/><line class="cls-18" x1="17.61" y1="45.25" x2="19.95" y2="46.62"/><path class="cls-15" d="M25.11,36.72v.13l1-.55.07-.06v-.07l-.07.07-.55.34Z"/><path class="cls-18" d="M15.62,47.31h0a.76.76,0,0,0,.2.55l.07.07L16,48l1,.55H17a.81.81,0,0,0,.69-.07L25.38,44l.49-.28a1.18,1.18,0,0,0,.48-.89V36.3a.25.25,0,0,0-.07-.2h-.07l-.9-.55a.2.2,0,0,0-.27,0l-.55.34-7.71,4.47v7.57Zm2.13-5.09v4h0l6.6-3.78h0a.53.53,0,0,0,.14-.28V38.3Z"/><path class="cls-16" d="M25.45,42.77l-1-.55a.53.53,0,0,1-.14.28l1,.55C25.45,42.91,25.45,42.84,25.45,42.77Z"/><polygon class="cls-16" points="25.45 37.89 24.49 37.34 24.49 42.15 25.45 42.77 25.45 37.89"/><path class="cls-16" d="M24.49,37.34l1,.55v-.07l-1-.55Z"/><polygon class="cls-16" points="25.32 42.98 24.35 42.43 17.27 46.48 18.23 47.1 25.32 42.98"/><path class="cls-16" d="M18.23,47.1l-1-.55a.31.31,0,0,1-.35,0l1,.55C18,47.17,18.16,47.17,18.23,47.1Z"/><path class="cls-16" d="M15.75,47.38a.77.77,0,0,0,.21.55L16,48l.07.07.89.55h.07c-.07,0-.07-.07-.14-.07a.07.07,0,0,0-.07-.07l-.07-.07c0-.07-.06-.07-.06-.14h0v-.2l-1-.69Z"/><path class="cls-15" d="M25.73,35.2l1,.55.21-.13a.2.2,0,0,1,.27,0l-1-.55a.21.21,0,0,0-.28,0Z"/><path class="cls-19" d="M16,40.84l.89.69a.53.53,0,0,1,.28-.27l.62-.35,7.7-4.47.62-.27.07-.07v.14l.21-.07L26.9,36,27,36l.27-.34h0a.2.2,0,0,0-.27,0l-.21.13-1-.55-.55.35-.69.41-7.71,4.4h0l-.62.35A.39.39,0,0,0,16,40.84Z"/><path class="cls-16" d="M15.75,41.33v6.05h0l1,.55v-6a.72.72,0,0,1,.06-.35l-.89-.69A1,1,0,0,0,15.75,41.33Z"/><path class="cls-26" d="M16.92,41.46a.36.36,0,0,0-.14.28V48.2h0c0,.07.07.07.07.14l.07.07a.07.07,0,0,1,.07.07l.07.07h0a.61.61,0,0,0,.69-.07L25.45,44l.48-.28a1.16,1.16,0,0,0,.49-.89V36.3a.25.25,0,0,0-.07-.2h-.21l-.07.07-.62.27-7.7,4.47Zm1,5.64c-.07-.13-.14-.2-.14-.27V42.15l7.56-4.4c.07-.07.14,0,.14.07V42.7a.36.36,0,0,1-.14.28L18.23,47a.29.29,0,0,1-.21.06Z"/><path class="cls-26" d="M25.93,36.17V37.4l1-.55a1.18,1.18,0,0,0,.48-.89h0c0-.14,0-.28-.14-.34h0a.2.2,0,0,0-.27,0l-.21.13-.83.42Z"/><line class="cls-18" x1="25.66" y1="35.13" x2="25.73" y2="35.2"/><line class="cls-18" x1="16.85" y1="41.53" x2="17.75" y2="42.22"/><path class="cls-27" d="M40.17,22.55l-3.44-2a.3.3,0,0,0-.34,0l-4.61,2.06a.13.13,0,0,0,0,.21l4.47,2.62a.36.36,0,0,0,.35,0l3.5-2.69C40.24,22.68,40.31,22.61,40.17,22.55Z"/><path class="cls-28" d="M26.14.46h0a1.1,1.1,0,0,1,.28.07V15.12L48.5,27.84V29h0c0,.07,0,.07-.07.14h0l.34-.34.07-.07h0a.42.42,0,0,0,.07-.28V13.4a1,1,0,0,0-.41-.83L26.83.05a.31.31,0,0,0-.35,0Z"/><path class="cls-29" d="M26,.81v14l.48.28h0L48.57,27.84v-14a1,1,0,0,0-.42-.83L26.48.46h0a.22.22,0,0,0-.27,0h0A.38.38,0,0,0,26,.81Z"/><path class="cls-30" d="M26,14.84v1a1.08,1.08,0,0,0,.21.62h0v.07h0l.07.07,21.6,12.45h0l.07.07a.07.07,0,0,1,.07.07h.13a.07.07,0,0,0,.07-.07h0c.07-.07.07-.07.07-.14h0V27.84L26.21,15.12h0Z"/><ellipse class="cls-5" cx="36.35" cy="21.55" rx="0.28" ry="0.48" transform="translate(-5.9 21.06) rotate(-30)"/><path class="cls-31" d="M18.78,23.37v.14h0c0,.07,0,.07.07.14l8,4.61a.34.34,0,0,0,.34,0l3.1-1.59a.07.07,0,0,0,.07-.07h0v-.27l-.07.07h0l-8-4.61c-.14-.07-.28-.07-.34,0l-3.1,1.79h0Z"/><path class="cls-32" d="M27.24,28.12l3.1-1.79a.13.13,0,0,0,0-.21l-8-4.61a.36.36,0,0,0-.35,0L18.85,23.3a.13.13,0,0,0,0,.21l8,4.61C27,28.12,27.1,28.19,27.24,28.12Z"/><path class="cls-33" d="M29,26l.69.41h.07l.34-.21h0l-.69-.41H29.3L29,26Z"/><path class="cls-34" d="M28.75,25.92l-.34-.21m0,0h0l.41-.21h.07l.35.21h0l-.42.21Z"/><path class="cls-35" d="M27.86,25.37l.34.2h.07l.35-.2h0l-.35-.21H28.2l-.34.21Z"/><path class="cls-36" d="M27.31,25l.34.21h.07l.35-.21h0l-.35-.2h-.07l-.34.2Z"/><path class="cls-37" d="M26.76,24.75l.34.2h.07l.35-.2h0l-.35-.21H27.1l-.34.21Z"/><path class="cls-38" d="M26.21,24.4l.34.21h.07L27,24.4h0l-.34-.2h-.07l-.41.2Z"/><path class="cls-39" d="M25.66,24.06l.34.21h.07l.35-.21h0l-.35-.21H26l-.34.21Z"/><path class="cls-40" d="M25.11,23.78l.34.21h.07l.35-.21h0l-.35-.2h-.07l-.34.2Z"/><path class="cls-41" d="M24.56,23.44l.34.21H25l.41-.21h0L25,23.23H25l-.41.21Z"/><path class="cls-42" d="M24,23.17l.34.2h.07l.34-.2h0L24.42,23h-.07l-.34.21Z"/><path class="cls-43" d="M23.46,22.82l.34.21h.07l.34-.21h0l-.34-.21H23.8l-.34.21Z"/><path class="cls-44" d="M22.91,22.48l.34.2h.07l.41-.2h0l-.34-.21h-.07l-.41.21Z"/><path class="cls-45" d="M22.36,22.2l.34.21h.07l.41-.21h0l-.34-.2h-.07l-.41.2Z"/><path class="cls-46" d="M21.81,21.86l.34.2h.07l.34-.2h0l-.34-.21h-.07l-.34.21Z"/><path class="cls-47" d="M27.86,26.6l.69.35h.07l.34-.21h0l-.69-.34H28.2l-.34.2Z"/><path class="cls-48" d="M27.31,26.33l.34.21h.07l.35-.21h0l-.35-.21h-.07l-.34.21Z"/><path class="cls-49" d="M26.76,26l.34.2h.07l.35-.2h0l-.35-.21H27.1l-.34.21Z"/><path class="cls-50" d="M26.21,25.71l.34.21h.07l.41-.21h0l-.34-.21h-.07l-.41.21Z"/><path class="cls-51" d="M25.66,25.37l.34.2h.07l.35-.2h0l-.35-.21H26l-.34.21Z"/><path class="cls-52" d="M25.11,25l.34.21h.07l.35-.21h0l-.35-.2h-.07l-.34.2Z"/><path class="cls-53" d="M24.56,24.75l.34.2H25l.41-.2h0L25,24.54H25l-.41.21Z"/><path class="cls-54" d="M24,24.4l.34.21h.07l.34-.21h0l-.34-.2h-.07l-.34.2Z"/><path class="cls-55" d="M23.46,24.06l.34.21h.07l.34-.21h0l-.34-.21H23.8l-.34.21Z"/><path class="cls-56" d="M22.91,23.78l.34.21h.07l.41-.21h0l-.34-.2h-.07l-.41.2Z"/><path class="cls-57" d="M22.36,23.44l.34.21h.07l.34-.21h0l-.34-.21H22.7l-.34.21Z"/><path class="cls-58" d="M21.81,23.1l.34.2h.07l.41-.2h0l-.34-.21h-.07l-.41.21Z"/><path class="cls-59" d="M21.26,22.82l.34.21h.07l.34-.21h0l-.34-.21H21.6l-.34.21Z"/><path class="cls-60" d="M20.71,22.48l.34.2h.07l.41-.2h0l-.34-.21h-.07l-.41.21Z"/><path class="cls-61" d="M27.24,26.88l.83.48h.07l.34-.21h0l-.83-.48h-.07l-.34.21Z"/><path class="cls-62" d="M26.69,26.54l.34.2h.07l.35-.2h0l-.35-.21H27l-.34.21Z"/><path class="cls-63" d="M26.14,26.19l.34.21h.07l.42-.21h0l-.35-.2h-.07l-.41.2Z"/><path class="cls-64" d="M25.59,25.92l.34.2H26l.35-.2h0L26,25.71h-.07l-.34.21Z"/><path class="cls-65" d="M25,25.57l.34.21h.07l.35-.21h0l-.35-.2h-.07l-.34.2Z"/><path class="cls-66" d="M24.49,25.3l.34.2h.07l.41-.2h0L25,25.09H24.9l-.41.21Z"/><path class="cls-67" d="M23.94,25l.34.21h.07L24.7,25h0l-.35-.2h-.07l-.34.2Z"/><path class="cls-68" d="M23.32,24.61l.34.21h.07l.35-.21h0l-.35-.21h-.07l-.34.21Z"/><path class="cls-69" d="M22.77,24.33l.34.21h.07l.42-.21h0l-.35-.2h-.07l-.41.2Z"/><path class="cls-70" d="M22.29,24l.34.21h0L23,24h0l-.35-.21h-.07l-.27.21Z"/><path class="cls-71" d="M21.67,23.65l.34.2h.07l.35-.2h0l-.35-.21H22l-.34.21Z"/><path class="cls-72" d="M21.12,23.37l.34.21h.07l.35-.21h0l-.35-.2h-.07l-.34.2Z"/><path class="cls-73" d="M20.22,22.82l.76.41h.07l.34-.2h0l-.75-.42h-.07l-.35.21C20.16,22.75,20.16,22.82,20.22,22.82Z"/><path class="cls-74" d="M26.42,27l1,.62h.07l.34-.21h0l-1-.62h-.07l-.34.21Z"/><path class="cls-75" d="M25.87,26.67l.34.21h.07l.34-.21h0l-.34-.2h-.07l-.34.2Z"/><path class="cls-76" d="M25.31,26.4l.35.2h.07l.34-.2h0l-.34-.21h-.07l-.35.21Z"/><path class="cls-77" d="M24.76,26.05l.35.21h.07l.41-.21h0l-.34-.2h-.07l-.42.2Z"/><path class="cls-78" d="M26.55,27.77l.35.21H27l.41-.21h0l-.35-.2H27l-.42.2Z"/><path class="cls-79" d="M26,27.43l.35.21h.07l.34-.21h0l-.34-.21h-.07l-.35.21Z"/><path class="cls-80" d="M25.45,27.09l.35.2h.07l.34-.2h0l-.34-.21H25.8l-.35.21Z"/><path class="cls-81" d="M24.76,26.67l.49.28h.06l.35-.21h0l-.48-.27h-.07l-.35.2Z"/><path class="cls-82" d="M21.32,24.68l.49.27h.07l.34-.2h0l-.48-.28h-.07l-.35.21Z"/><path class="cls-83" d="M22,25.09l2.55,1.45h.14l.34-.21v-.07l-2.55-1.44h-.13l-.35.27Z"/><path class="cls-84" d="M24.21,25.71l.35.21h.07l.41-.21h0l-.34-.21h-.07l-.42.21Z"/><path class="cls-85" d="M23.66,25.44l.35.2h.07l.34-.2h0l-.34-.21H24l-.35.21Z"/><path class="cls-86" d="M23.11,25.09l.35.21h.07l.34-.21h0l-.34-.21h-.07l-.35.21Z"/><path class="cls-87" d="M22.91,25l-.35-.2m0,.07h0l.42-.21H23l.35.21h0L23,25Z"/><path class="cls-88" d="M22,24.47l.35.21h.07l.34-.21h0l-.34-.2h-.07l-.35.2Z"/><path class="cls-89" d="M21.46,24.13l.35.2h.07l.34-.2h0l-.34-.21h-.07l-.35.21Z"/><path class="cls-90" d="M20.91,23.85l.35.21h.06l.42-.21h0l-.35-.2h-.07l-.41.2Z"/><path class="cls-91" d="M20.77,24.4l.35.21h.07l.34-.21h0l-.34-.2h-.07l-.35.2Z"/><path class="cls-92" d="M20.22,24.06l.35.21h.07l.34-.21h0l-.34-.21h-.07l-.35.21Z"/><path class="cls-93" d="M19.12,23.44l.35.21h.07l.41-.21h0l-.34-.21h-.07l-.42.21Z"/><path class="cls-94" d="M19.67,23.1l1,.62h.06l.35-.21v-.07l-1-.62H20l-.35.28Z"/><path class="cls-95" d="M22.36,22.34,21.67,22H21.6l-.34.2h0l.68.41h0l.42-.27Z"/><path class="cls-96" d="M22.91,22.61l-.35-.2h-.07l-.34.2h0l.34.21h.07l.35-.21Z"/><path class="cls-97" d="M23.39,23,23,22.75H23l-.42.21h0l.35.21H23l.41-.21Z"/><path class="cls-98" d="M24,23.23l-.35-.2H23.6l-.35.2h0l.35.21h.06l.35-.21Z"/><path class="cls-99" d="M24.56,23.58l-.35-.21h-.06l-.35.21h0l.35.2h.06l.35-.2C24.49,23.58,24.56,23.65,24.56,23.58Z"/><path class="cls-100" d="M25.11,23.92l-.35-.2H24.7l-.35.2h0l.35.21h0l.41-.21Z"/><path class="cls-101" d="M25.66,24.2,25.31,24h-.06l-.42.21h0l.35.2h.07l.41-.2Z"/><path class="cls-102" d="M26.21,24.54l-.34-.21H25.8l-.35.21h0l.35.21h.07l.34-.21Z"/><path class="cls-103" d="M26.76,24.88l-.34-.2h-.07l-.35.2h0l.35.21h.07l.34-.21Z"/><path class="cls-104" d="M27.31,25.16,27,25H26.9l-.42.21h0l.35.21h.07l.41-.21Z"/><path class="cls-105" d="M27.86,25.5l-.34-.2h-.07l-.35.2h0l.35.21h0l.41-.21Z"/><path class="cls-106" d="M28.41,25.78l-.34-.21H28l-.35.21h0L28,26h.07l.34-.21Z"/><path class="cls-107" d="M29,26.12l-.34-.2h-.07l-.41.2h0l.34.21h.07l.41-.21Z"/><path class="cls-108" d="M29.51,26.47l-.34-.21H29.1l-.35.21h0l.35.2h.07l.34-.2Z"/><path class="cls-109" d="M20.22,23.85l-.41-.27-.2.14h0l.41.2h0Z"/><path class="cls-5" d="M40,19.73,46,23.17a.33.33,0,0,1,.14.27h0c0,.07-.07.14-.14.07L40,20.07a.36.36,0,0,1-.14-.28h0C39.9,19.73,40,19.73,40,19.73Z"/><path class="cls-5" d="M37.9,17.8,46,22.48a.34.34,0,0,1,.14.27h0c0,.07-.07.14-.14.07L37.9,18.14a.34.34,0,0,1-.13-.27h0C37.77,17.8,37.83,17.73,37.9,17.8Z"/><path class="cls-5" d="M42,19.45l4,2.27a.36.36,0,0,1,.14.28h0a.08.08,0,0,1-.14.06l-4-2.27a.33.33,0,0,1-.14-.27h0C41.89,19.45,42,19.38,42,19.45Z"/><path class="cls-5" d="M39,17l7,4.06a.36.36,0,0,1,.14.28h0a.08.08,0,0,1-.14.07l-7-4.06a.39.39,0,0,1-.13-.28h0C38.87,17,38.94,17,39,17Z"/><path class="cls-5" d="M41.27,17.66,46,20.34a.36.36,0,0,1,.14.28h0c0,.07-.07.14-.14.07L41.27,18a.39.39,0,0,1-.13-.28h0C41.21,17.66,41.21,17.59,41.27,17.66Z"/><path class="cls-5" d="M39.83,16.08,46,19.59a.36.36,0,0,1,.14.27h0c0,.07-.07.14-.14.07l-6.12-3.51a.34.34,0,0,1-.14-.27h0A.24.24,0,0,1,39.83,16.08Z"/><path class="cls-5" d="M40,15.46,46,18.9a.36.36,0,0,1,.14.28h0a.08.08,0,0,1-.14.06L40,15.8a.33.33,0,0,1-.14-.27h0C39.9,15.46,40,15.46,40,15.46Z"/><path class="cls-5" d="M37.9,13.53,46,18.21a.36.36,0,0,1,.14.28h0a.08.08,0,0,1-.14.07L37.9,13.88a.36.36,0,0,1-.13-.28h0C37.77,13.53,37.83,13.47,37.9,13.53Z"/><path class="cls-5" d="M42,15.19l4,2.27a.33.33,0,0,1,.14.27h0c0,.07-.07.14-.14.07l-4-2.27a.36.36,0,0,1-.14-.28h0C41.89,15.19,42,15.12,42,15.19Z"/><path class="cls-5" d="M39,12.71l7,4.06a.36.36,0,0,1,.14.27h0c0,.07-.07.14-.14.07l-7-4.06a.37.37,0,0,1-.13-.27h0A.24.24,0,0,1,39,12.71Z"/><path class="cls-5" d="M41.27,13.4,46,16.08a.36.36,0,0,1,.14.27h0c0,.07-.07.14-.14.07l-4.68-2.68a.39.39,0,0,1-.13-.27h0C41.21,13.4,41.21,13.33,41.27,13.4Z"/><path class="cls-5" d="M39.83,11.81,46,15.32a.36.36,0,0,1,.14.28h0c0,.07-.07.14-.14.07l-6.12-3.51a.36.36,0,0,1-.14-.28h0C39.69,11.81,39.76,11.81,39.83,11.81Z"/><path class="cls-5" d="M30.54,14.29l5.92,3.44a.36.36,0,0,1,.14.28h0a.08.08,0,0,1-.14.06l-5.92-3.43a.36.36,0,0,1-.13-.28h0C30.41,14.29,30.47,14.22,30.54,14.29Z"/><path class="cls-5" d="M28.41,12.3,36.53,17a.36.36,0,0,1,.14.28h0c0,.07-.07.14-.14.07l-8-4.68a.36.36,0,0,1-.14-.27h0C28.2,12.3,28.34,12.3,28.41,12.3Z"/><path class="cls-5" d="M32.47,14l4,2.27a.33.33,0,0,1,.14.27h0c0,.07-.07.14-.14.07l-4-2.27a.36.36,0,0,1-.14-.28h0A.08.08,0,0,1,32.47,14Z"/><path class="cls-5" d="M29.44,11.54l7,4.06a.36.36,0,0,1,.14.27h0c0,.07-.07.14-.14.07l-7-4.06a.34.34,0,0,1-.14-.27h0C29.3,11.54,29.37,11.47,29.44,11.54Z"/><path class="cls-5" d="M31.78,12.16l4.68,2.68a.36.36,0,0,1,.14.28h0a.08.08,0,0,1-.14.07L31.78,12.5a.34.34,0,0,1-.14-.27h0C31.64,12.16,31.71,12.16,31.78,12.16Z"/><path class="cls-5" d="M30.34,10.65l6.12,3.5a.36.36,0,0,1,.14.28h0c0,.07-.07.14-.14.07L30.34,11a.36.36,0,0,1-.14-.28h0A.08.08,0,0,1,30.34,10.65Z"/><path class="cls-5" d="M30.54,10l5.92,3.44a.33.33,0,0,1,.14.27h0c0,.07-.07.14-.14.07l-5.92-3.44a.36.36,0,0,1-.13-.28h0C30.41,10,30.47,10,30.54,10Z"/><path class="cls-5" d="M28.41,8l8.12,4.68a.36.36,0,0,1,.14.27h0c0,.07-.07.14-.14.07l-8-4.67a.36.36,0,0,1-.14-.28h0C28.2,8,28.34,8,28.41,8Z"/><path class="cls-5" d="M32.47,9.68l4,2.27a.36.36,0,0,1,.14.28h0c0,.07-.07.14-.14.07l-4-2.27a.36.36,0,0,1-.14-.28h0C32.33,9.68,32.4,9.68,32.47,9.68Z"/><path class="cls-5" d="M29.44,7.27l7,4.06a.36.36,0,0,1,.14.28h0c0,.07-.07.14-.14.07l-7-4.06a.36.36,0,0,1-.14-.28h0A.08.08,0,0,1,29.44,7.27Z"/><path class="cls-5" d="M31.78,7.89l4.68,2.69a.34.34,0,0,1,.14.27h0c0,.07-.07.14-.14.07L31.78,8.24A.36.36,0,0,1,31.64,8h0C31.64,7.89,31.71,7.89,31.78,7.89Z"/><path class="cls-5" d="M30.34,6.38l6.12,3.51a.36.36,0,0,1,.14.27h0c0,.07-.07.14-.14.07L30.34,6.72a.33.33,0,0,1-.14-.27h0C30.2,6.38,30.27,6.31,30.34,6.38Z"/><path class="cls-24" d="M20.57,25.37a12.41,12.41,0,0,1,1,1l.62-.34.48-.14a1.57,1.57,0,0,0,1-.76c.06-.14.13-.21.13-.34a.73.73,0,0,0-.55-.69L22.84,24a1,1,0,0,0-.9.28l-1,1Z"/></g></g></svg>