<svg xmlns="http://www.w3.org/2000/svg" xmlns:xlink="http://www.w3.org/1999/xlink" viewBox="0 0 79.46 95.14"><defs><style>.cls-1{opacity:0.3;}.cls-2{fill:#020005;}.cls-3{fill:#005cb0;}.cls-4{fill:#0084d0;}.cls-5{fill:url(#未命名的渐变_116);}.cls-6{fill:#fff;}.cls-7{fill:url(#未命名的渐变_119);}</style><linearGradient id="未命名的渐变_116" x1="26.96" y1="379.92" x2="80.87" y2="348.8" gradientTransform="translate(93.58 390.36) rotate(180)" gradientUnits="userSpaceOnUse"><stop offset="0" stop-color="#423f77"/><stop offset="1" stop-color="#670063"/></linearGradient><linearGradient id="未命名的渐变_119" x1="740.13" y1="-237.06" x2="752.19" y2="-196.07" gradientTransform="matrix(-0.87, -0.5, 0, -1.16, 446.09, -979.78)" gradientUnits="userSpaceOnUse"><stop offset="0" stop-color="#fff"/><stop offset="1" stop-color="#b2c5e5"/></linearGradient></defs><title>云服务</title><g id="图层_2" data-name="图层 2"><g id="基础"><g class="cls-1"><path class="cls-2" d="M.11,72.67a2.41,2.41,0,0,0,1,1l2.6,1.5,1.8,1h0l31.7,18.3a5.41,5.41,0,0,0,4.8.2l30.7-17.8h0l3-1.7,2.9-1.7a1.42,1.42,0,0,0,.8-.9h0c.2-.6-.2-1.3-1.1-1.9l-36-20.8a5.41,5.41,0,0,0-4.8-.2L.91,70.87a1.33,1.33,0,0,0-.8,1.8Z"/></g><path class="cls-3" d="M0,48.57v5.6a1.85,1.85,0,0,0,1.2,1.5l36,20.8a5.41,5.41,0,0,0,4.8.2l36.5-21.3a1.34,1.34,0,0,0,.8-1.4h0v-5.5a1.42,1.42,0,0,1-.8.9l-2.9,1.7-2.9,1.7h0l-30.8,17.8a5.41,5.41,0,0,1-4.8-.2L5.51,52.17h0l-1.8-1-2.6-1.5a2.41,2.41,0,0,1-1-1Z"/><path d="M3.71,51.17l1.8,1h0l31.6,18.3a5.41,5.41,0,0,0,4.8.2l30.8-17.8h0l3-1.7-.2-.1-33.2-19.2a5.41,5.41,0,0,0-4.8-.2L3.91,51.07Z"/><path class="cls-4" d="M.11,48.67a2.41,2.41,0,0,0,1,1l2.6,1.5,1.8,1h0l31.7,18.3a5.41,5.41,0,0,0,4.8.2l30.7-17.8h0l3-1.7,2.9-1.7a1.42,1.42,0,0,0,.8-.9h0c.2-.6-.2-1.3-1.1-1.9l-36-20.8a5.41,5.41,0,0,0-4.8-.2L.91,46.77a1.34,1.34,0,0,0-.8,1.7Z"/><path class="cls-3" d="M0,36.07v5.6a1.85,1.85,0,0,0,1.2,1.5l36,20.8a5.41,5.41,0,0,0,4.8.2L78.51,43a1.34,1.34,0,0,0,.8-1.4h0v-5.5a1.42,1.42,0,0,1-.8.9l-2.9,1.7-3,1.7h0l-30.8,17.8A5.41,5.41,0,0,1,37,58L5.41,39.67h0l-1.8-1L1,37.17a2.41,2.41,0,0,1-1-1v-.1Z"/><path d="M3.71,38.67l1.8,1h0L37.11,58a5.41,5.41,0,0,0,4.8.2l30.8-17.8h0l3-1.7-.2-.1-33.2-19.2a5.41,5.41,0,0,0-4.8-.2L3.71,38.67Z"/><path class="cls-4" d="M.11,36.17a2.41,2.41,0,0,0,1,1l2.6,1.5,1.8,1h0L37.21,58a5.41,5.41,0,0,0,4.8.2l30.7-17.8h0l3-1.7,2.9-1.7a1.42,1.42,0,0,0,.8-.9h0c.2-.6-.2-1.3-1.1-1.9l-36-20.8a5.41,5.41,0,0,0-4.8-.2L.91,34.37a1.33,1.33,0,0,0-.8,1.8Z"/><path class="cls-3" d="M0,23.37V29a1.85,1.85,0,0,0,1.2,1.5l36,20.8a5.41,5.41,0,0,0,4.8.2l36.5-21.2a1.34,1.34,0,0,0,.8-1.4h0v-5.5a1.42,1.42,0,0,1-.8.9L75.61,26l-3,1.7h0l-30.8,17.8a5.41,5.41,0,0,1-4.8-.2L5.41,27.07h0l-1.8-1L1,24.57a2.41,2.41,0,0,1-1-1v-.2Z"/><path class="cls-5" d="M3.71,26l1.8,1h0l31.6,18.3a5.41,5.41,0,0,0,4.8.2l30.8-17.8h0l3-1.7-.2-.1L42.31,6.67a5.41,5.41,0,0,0-4.8-.2L3.71,26Z"/><path class="cls-4" d="M.11,23.47a2.41,2.41,0,0,0,1,1L3.71,26l1.8,1h0l31.7,18.3a5.41,5.41,0,0,0,4.8.2l30.7-17.8h0l3-1.7,2.9-1.7a1.42,1.42,0,0,0,.8-.9h0c.2-.6-.2-1.3-1.1-1.9L42.31.67a5.41,5.41,0,0,0-4.8-.2L.91,21.67a1.36,1.36,0,0,0-.8,1.8Z"/><ellipse class="cls-6" cx="24.11" cy="41.13" rx="1.2" ry="2" transform="matrix(0.87, -0.5, 0.5, 0.87, -17.33, 17.57)"/><path class="cls-7" d="M20.91,38.07c-.6-1-1.5-1.5-2-1.2s-.6,1.4,0,2.3,1.5,1.5,2,1.2S21.41,39.07,20.91,38.07Z"/><ellipse class="cls-6" cx="15.7" cy="36.07" rx="1.2" ry="2" transform="translate(-15.93 12.68) rotate(-30)"/><ellipse class="cls-6" cx="21.78" cy="52.35" rx="1.2" ry="2" transform="translate(-23.26 17.91) rotate(-30)"/><ellipse class="cls-6" cx="17.55" cy="49.83" rx="1.2" ry="2" transform="translate(-22.56 15.45) rotate(-30)"/><ellipse class="cls-6" cx="21.55" cy="64.64" rx="1.2" ry="2" transform="translate(-29.44 19.43) rotate(-30)"/><ellipse class="cls-6" cx="13.07" cy="59.45" rx="1.2" ry="2" transform="translate(-27.97 14.5) rotate(-30)"/></g></g></svg>