<svg xmlns="http://www.w3.org/2000/svg" viewBox="0 0 101.71 136.19"><defs><style>.cls-1{fill:#69e2de;}.cls-2{fill:#fff;}.cls-3{fill:#ff5b45;}.cls-4{fill:#002738;}.cls-5{fill:#ffa033;}.cls-6{fill:#dcdcdc;}.cls-7{fill:#00bec5;}.cls-8{fill:#ef3522;}</style></defs><title>用户02</title><g id="图层_2" data-name="图层 2"><g id="Objects"><path class="cls-1" d="M41.7,99a19.31,19.31,0,0,0-3,9L20.94,90.61l18.71,45.58,6-29.67Z"/><path class="cls-2" d="M50.63,79.83a46.07,46.07,0,0,0-14.78,2.49l14.78,8.82Z"/><path class="cls-3" d="M41.7,99l4,7.5-6,29.67h11V91.36A21,21,0,0,0,41.7,99Z"/><path class="cls-1" d="M41.7,99a21,21,0,0,1,8.93-7.66v-.22L35.85,82.32a48.88,48.88,0,0,0-14.91,8.29L38.73,108A19.31,19.31,0,0,1,41.7,99Z"/><path class="cls-4" d="M0,136.19H39.65L20.94,90.61C8.25,100.86,0,117.45,0,136.19Z"/><path class="cls-2" d="M27.31,26.07C17.88,27.75,11,39.91,11,39.91a39.9,39.9,0,0,0,39.68,39.9V1.51A28.6,28.6,0,0,1,27.31,26.07Z"/><path class="cls-3" d="M27.31,26.07A28.6,28.6,0,0,0,50.63,1.51V0A39.9,39.9,0,0,0,11,39.91S17.88,27.75,27.31,26.07Z"/><path class="cls-5" d="M50.63,0h0Z"/><path class="cls-5" d="M50.63,79.81v0h0Z"/><path class="cls-6" d="M50.85,91.27l15-9a46.29,46.29,0,0,0-15-2.5h-.22V91.14Z"/><path class="cls-7" d="M63,108a19.32,19.32,0,0,0-3-9l-4,7.5,6,29.67L80.77,90.61Z"/><path class="cls-8" d="M60,99a20.85,20.85,0,0,0-9.15-7.75l-.22.09v44.83H62.06l-6-29.67Z"/><path class="cls-5" d="M50.63,91.36l.22-.09-.22-.13Z"/><path class="cls-7" d="M60,99a19.32,19.32,0,0,1,3,9L80.77,90.61a49,49,0,0,0-14.91-8.29l-15,9A20.85,20.85,0,0,1,60,99Z"/><path class="cls-4" d="M80.77,90.61,62.06,136.19h39.65C101.71,117.45,93.46,100.86,80.77,90.61Z"/><path class="cls-6" d="M90.76,39.91S83.83,27.75,74.4,26.07,52.57,16.71,50.85,0c-.05.52-.14,1-.22,1.51v78.3h.22A39.91,39.91,0,0,0,90.76,39.91Z"/><path class="cls-5" d="M50.85,0h-.22v1.5C50.71,1,50.8.52,50.85,0Z"/><path class="cls-8" d="M74.4,26.07c9.43,1.68,16.36,13.84,16.36,13.84A39.91,39.91,0,0,0,50.85,0C52.57,16.71,65,24.38,74.4,26.07Z"/><path class="cls-5" d="M65.81,31.59a12.38,12.38,0,0,0-11.94,9.19,8.62,8.62,0,0,0-5.07-.71,7.51,7.51,0,0,0-1.07.31,12.4,12.4,0,1,0,.49,4.37A2.8,2.8,0,0,1,49.6,44a5.86,5.86,0,0,1,3.9,1.08A12.36,12.36,0,1,0,65.81,31.59ZM35.9,52.28A8.33,8.33,0,1,1,44.22,44,8.33,8.33,0,0,1,35.9,52.28Zm29.91,0A8.33,8.33,0,1,1,74.13,44,8.34,8.34,0,0,1,65.81,52.28Z"/></g></g></svg>