<?xml version="1.0" encoding="UTF-8"?>
<svg width="48px" height="48px" viewBox="0 0 48 48" version="1.1" xmlns="http://www.w3.org/2000/svg" xmlns:xlink="http://www.w3.org/1999/xlink">
    <!-- Generator: Sketch 50.2 (55047) - http://www.bohemiancoding.com/sketch -->
    <title>透明</title>
    <desc>Created with Sketch.</desc>
    <defs></defs>
    <g id="Page-1" stroke="none" stroke-width="1" fill="none" fill-rule="evenodd">
        <g id="Artboard-2" transform="translate(-582.000000, -566.000000)">
            <g id="透明" transform="translate(584.000000, 570.000000)">
                <path d="M9.65020688,12.810139 L7.8669873,9.72151206 C7.72891611,9.48236575 7.81085369,9.17657054 8.05,9.03849936 C8.28914631,8.90042817 8.59494151,8.98236575 8.7330127,9.22151206 L10.2,11.7624086 L11.6669873,9.22151206 C11.8050585,8.98236575 12.1108537,8.90042817 12.35,9.03849936 C12.5891463,9.17657054 12.6710839,9.48236575 12.5330127,9.72151206 L10.7497931,12.810139 L13.1,12.810139 C13.3761424,12.810139 13.6,13.0339966 13.6,13.310139 C13.6,13.5862814 13.3761424,13.810139 13.1,13.810139 L10.6,13.810139 L10.6,15.7815676 L13.1,15.7815676 C13.3761424,15.7815676 13.6,16.0054252 13.6,16.2815676 C13.6,16.5577099 13.3761424,16.7815676 13.1,16.7815676 L10.6,16.7815676 L10.6,19.2815676 C10.6,19.5577099 10.3761424,19.7815676 10.1,19.7815676 C9.82385763,19.7815676 9.6,19.5577099 9.6,19.2815676 L9.6,16.7815676 L7.1,16.7815676 C6.82385763,16.7815676 6.6,16.5577099 6.6,16.2815676 C6.6,16.0054252 6.82385763,15.7815676 7.1,15.7815676 L9.6,15.7815676 L9.6,13.810139 L7.1,13.810139 C6.82385763,13.810139 6.6,13.5862814 6.6,13.310139 C6.6,13.0339966 6.82385763,12.810139 7.1,12.810139 L9.65020688,12.810139 Z" id="Combined-Shape" fill="#252B3A"></path>
                <circle id="Oval-2" fill="#C1DAFF" cx="35" cy="29" r="10"></circle>
                <path d="M35,17 L35,2 C35,0.8954305 34.1045695,0 33,0 L2,0 C0.8954305,0 -1.45716772e-16,0.8954305 0,2 L0,37 C1.45716772e-16,38.1045695 0.8954305,39 2,39 L19,39 C19.6666667,38.8705241 20,38.5371908 20,38 C20,37.4628092 19.6666667,37.1294759 19,37 L2,37 L2,2 L33,2 L33,17 C33.0620117,17.6666667 33.3953451,18 34,18 C34.6046549,18 34.9379883,17.6666667 35,17 Z" id="Path" fill="#252B3A"></path>
                <circle id="Oval-2" stroke="#252B3A" stroke-width="2" cx="30" cy="30" r="10"></circle>
                <rect id="Rectangle-3" fill="#252B3A" x="18" y="10" width="11" height="1" rx="0.5"></rect>
                <rect id="Rectangle-3-Copy" fill="#252B3A" x="6" y="28" width="8" height="1" rx="0.5"></rect>
                <circle id="Oval-4" stroke="#252B3A" cx="30.5" cy="29.5" r="1.5"></circle>
                <ellipse id="Oval-3" stroke="#252B3A" cx="30.1922078" cy="29.6142857" rx="7" ry="3.5"></ellipse>
            </g>
        </g>
    </g>
</svg>