<?xml version="1.0" encoding="UTF-8"?>
<svg width="48px" height="48px" viewBox="0 0 48 48" version="1.1" xmlns="http://www.w3.org/2000/svg" xmlns:xlink="http://www.w3.org/1999/xlink">
    <!-- Generator: Sketch 50.2 (55047) - http://www.bohemiancoding.com/sketch -->
    <title>高性价比</title>
    <desc>Created with Sketch.</desc>
    <defs></defs>
    <g id="Page-1" stroke="none" stroke-width="1" fill="none" fill-rule="evenodd">
        <g id="Artboard-2" transform="translate(-289.000000, -566.000000)">
            <g id="Group-Copy-6" transform="translate(288.000000, 566.000000)">
                <rect id="Rectangle-7" x="0" y="0" width="48" height="48"></rect>
                <polyline id="Path-75" stroke="#252B3A" stroke-linecap="round" stroke-linejoin="round" points="10 3.5 43.5 3.5 43.5 28"></polyline>
                <polyline id="Path-76" stroke="#252B3A" stroke-width="2" stroke-linecap="round" stroke-linejoin="round" points="39.5 23.3031684 39.5 7.5 2.49555157 7.5 2.49555157 44.5042385 15.2189967 44.5006443 25.6390212 44.5"></polyline>
                <polyline id="Path-68" stroke="#252B3A" points="13 23 18 19 23.5 23.5 29 19"></polyline>
                <path d="M11,27 C12.1045695,27 13,26.1045695 13,25 C13,23.8954305 12.1045695,23 11,23 C9.8954305,23 9,23.8954305 9,25 C9,26.1045695 9.8954305,27 11,27 Z" id="Oval-46" stroke="#252B3A"></path>
                <path d="M31,19 C32.1045695,19 33,18.1045695 33,17 C33,15.8954305 32.1045695,15 31,15 C29.8954305,15 29,15.8954305 29,17 C29,18.1045695 29.8954305,19 31,19 Z" id="Oval-46" stroke="#252B3A"></path>
                <polygon id="Polygon-3-Copy" fill="#C1DAFF" points="40.5 25 48.7272413 29.75 48.7272413 39.25 40.5 44 32.2727587 39.25 32.2727587 29.75"></polygon>
                <polygon id="Polygon-3-Copy" stroke="#252B3A" stroke-width="2" stroke-linecap="round" stroke-linejoin="round" points="36.5 27 44.7272413 31.75 44.7272413 41.25 36.5 46 28.2727587 41.25 28.2727587 31.75"></polygon>
                <polyline id="Path-6" stroke="#252B3A" stroke-linecap="round" points="31.7810609 35.9170306 35.2346093 39.1406726 40.836545 34.4099055"></polyline>
            </g>
        </g>
    </g>
</svg>