<?xml version="1.0" encoding="UTF-8"?>
<svg width="48px" height="48px" viewBox="0 0 48 48" version="1.1" xmlns="http://www.w3.org/2000/svg" xmlns:xlink="http://www.w3.org/1999/xlink">
    <!-- Generator: Sketch 50.2 (55047) - http://www.bohemiancoding.com/sketch -->
    <title>灵活</title>
    <desc>Created with Sketch.</desc>
    <defs></defs>
    <g id="Page-1" stroke="none" stroke-width="1" fill="none" fill-rule="evenodd">
        <g id="Artboard-2" transform="translate(-435.000000, -566.000000)">
            <g id="灵活" transform="translate(434.000000, 568.000000)">
                <path d="M28.8004765,9.67989352 L42.1018463,9.67989352 C44.3109853,9.67989352 46.1018463,11.4707545 46.1018463,13.6798935 L46.1018463,23.495567 L32.8004765,23.495567 C30.5913375,23.495567 28.8004765,21.704706 28.8004765,19.495567 L28.8004765,9.67989352 Z" id="Path" fill="#C1DAFF"></path>
                <path d="M29.6874273,25 L42.6725784,25 C43.0442395,25 43.8926575,25.6557681 43.8926575,26.0318634 C43.8926575,26.4079588 43.5912275,26.712417 43.2195664,26.712417 L29.6874273,26.712417 L29.6874273,25 Z M17,17.6798935 L17,4.93112067 C17,4.55528112 17.3011736,4.2505671 17.6728347,4.2505671 L40.5320722,4.2505671 C42.385764,4.2505671 43.8926575,5.77848664 43.8926575,7.65128821 L43.8926575,26.0318634 C43.8926575,26.4079588 43.5914838,26.712417 43.2198227,26.712417 C42.8481616,26.712417 42,26.056649 42,25.6805536 L42,8.03935813 C42,6.91772397 41.0949411,6.00000002 39.9850842,6 L18.3271653,6 L19,5.31944643 L19,17.6798935 L17,17.6798935 Z M24.3804499,6.88960832 L24.3804499,3.70097972 C24.3804499,3.32488434 24.6816235,3.02042616 25.0532846,3.02042616 C25.4249457,3.02042616 25.7261194,3.32488434 25.7261194,3.70097972 L25.7261194,6.88960832 C25.7261194,7.2657037 25.4249457,7.57016188 25.0532846,7.57016188 C24.6816235,7.57016188 24.3804499,7.2657037 24.3804499,6.88960832 Z M35.8186405,6.54933152 L35.8186405,3.36044709 C35.8186405,2.98460754 36.1198142,2.67989352 36.4914753,2.67989352 C36.8631364,2.67989352 37.16431,2.98460754 37.16431,3.36044709 L37.16431,6.54933152 C37.16431,6.9254269 36.8631364,7.22988509 36.4914753,7.22988511 C36.1198142,7.22988514 35.8186405,6.92542693 35.8186405,6.54933152 Z" id="Shape" fill="#252B3A" fill-rule="nonzero"></path>
                <path d="M22.9275205,18 L12.8349994,18 L12.8349994,18.8896083 C12.8349994,19.2657037 12.5338257,19.5701619 12.1621646,19.5701619 C11.7905035,19.5701619 11.4893299,19.2657037 11.4893299,18.8896083 L11.4893299,18 L5.32716526,18 L6,17.3194464 L6,35.1543454 C6,36.2805849 6.90787834,37.1998439 8.02363059,37.1998439 L29.576958,37.1998439 C29.9486191,37.1998439 30.9059171,37.943351 30.9059171,38.3194464 C30.9059171,38.6955418 30.6044871,39 30.232826,39 L7.45744778,39 C5.59837335,39.0002559 4.08814771,37.4715688 4.08814771,35.5936503 L4.08814771,16.8383062 C4.08814771,16.4624667 4.38932135,16.1577526 4.76098245,16.1577526 L11.4893299,16.1577526 L11.4893299,15.6079094 C11.4893299,15.231814 11.7905035,14.9273559 12.1621646,14.9273559 C12.5338257,14.9273559 12.8349994,15.231814 12.8349994,15.6079094 L12.8349994,16.1569851 L22.9275205,16.1569851 L22.9275205,15.2676326 C22.9275205,14.8915372 23.2286942,14.5870791 23.6003553,14.5870791 C23.9720164,14.5870791 24.27319,14.8917931 24.27319,15.2676326 L24.27319,16.1574968 L27.6409522,16.1574968 C29.494644,16.1574968 31.0015375,17.6854163 31.0015375,19.5582179 L31.0015375,38.3194464 C31.0015375,38.6955418 30.7003638,39 30.3287027,39 C29.9570416,39 29,38.2564929 29,37.8803975 L29,20.0393581 C29,18.917724 28.0949411,18 26.9850842,18 L24.27319,18 L24.27319,18.5493315 C24.27319,18.9254269 23.9720164,19.2298851 23.6003553,19.2298851 C23.2286942,19.2298851 22.9275205,18.9254269 22.9275205,18.5493315 L22.9275205,18 Z" id="Shape" fill="#252B3A" fill-rule="nonzero"></path>
                <polyline id="Path-6" stroke="#252B3A" stroke-linecap="round" points="13.0881477 27.0942042 16.5416961 30.3178462 22.1436318 25.5870791"></polyline>
                <path d="M47.9702918,35.7850881 L47.2717359,33.1837993 C47.200727,32.9189645 46.9280792,32.7628727 46.6618141,32.8323756 L44.199062,33.490915 C43.9333447,33.5621386 43.7756962,33.8347946 43.8468465,34.1000785 C43.918218,34.3652029 44.1905032,34.5212947 44.4570584,34.4517195 L45.8469894,34.0793725 C44.9096582,36.4224147 42.595379,38.0157675 40.0347086,38.0157675 C37.011429,38.0157675 34.4235591,35.8648716 33.8806569,32.9012992 C33.8311901,32.6308173 33.57051,32.4517751 33.3012712,32.5015855 C33.0307832,32.5509378 32.8515329,32.8097431 32.9008219,33.0797623 C33.5303273,36.5161712 36.5303241,39.0100925 40.0346361,39.0100925 C42.9017543,39.0100925 45.4996336,37.2841052 46.65253,34.7187986 L47.0080095,36.0424658 C47.0791707,36.3077205 47.3522263,36.465225 47.6180037,36.394324 C47.8837602,36.3230993 48.0414405,36.0504118 47.9702918,35.7850881 Z" id="Shape" fill="#252B3A" fill-rule="nonzero" transform="translate(40.440018, 35.751680) rotate(-47.000000) translate(-40.440018, -35.751680) "></path>
                <path d="M4.36648907,13.4698005 C4.40085431,13.4342143 4.43082591,13.3938023 4.45634562,13.348625 L5.88770813,10.7730842 C6.04173308,10.4950111 5.94206531,10.1456606 5.66495151,9.99228873 C5.38768871,9.83923747 5.04012957,9.94059947 4.88314693,10.2181893 L4.12717103,11.5792981 C3.13111116,8.98401225 3.710223,6.01558122 5.6844185,3.97124193 C8.10355646,1.46615125 11.9580382,1.03149931 14.8491627,2.9381272 C15.1134886,3.11240521 15.4699204,3.03886448 15.6454043,2.77384277 C15.7297335,2.6465626 15.7601635,2.4911911 15.7299934,2.34194274 C15.6998233,2.19269438 15.6115273,2.06180853 15.484549,1.97810764 C12.1323062,-0.232425771 7.66378465,0.270868329 4.8595813,3.17470591 C2.59578586,5.5189347 1.91489117,8.91092922 3.01794195,11.8960477 L1.51481045,11.0644909 C1.23754765,10.9114396 0.889464296,11.0133444 0.733004052,11.2902731 C0.578709084,11.5683007 0.678274996,11.9178359 0.955467625,12.0712518 L3.67489778,13.5746369 C3.90687107,13.703069 4.18994494,13.6526173 4.36648907,13.4698005 Z" id="Path" fill="#252B3A"></path>
            </g>
        </g>
    </g>
</svg>