<svg xmlns="http://www.w3.org/2000/svg" viewBox="0 0 101.71 136.18"><defs><style>.cls-1{fill:#afc01d;}.cls-2{fill:#fff;}.cls-3{fill:#002738;}.cls-4{fill:#dcdcdc;}.cls-5{fill:#7ea800;}.cls-6{fill:#00bec5;}.cls-7{fill:#69e2de;}</style></defs><title>技师</title><g id="图层_2" data-name="图层 2"><g id="Objects"><path class="cls-1" d="M11,36.15V38c0-.63,0-1.26.09-1.88Z"/><path class="cls-1" d="M90.67,41.79c0,.62,0,1.25-.1,1.87v74.1h.1Z"/><path class="cls-1" d="M50.85,91.77,40.53,81a45.83,45.83,0,0,1,10.33-1.2A39.88,39.88,0,0,1,11,41.79v76H50.86v-26Z"/><path class="cls-1" d="M90.67,36.15h-.1c.06.62.07,1.25.1,1.88Z"/><path class="cls-2" d="M11,39.91c0,.63.06,1.25.09,1.88V38C11,38.66,11,39.27,11,39.91Z"/><path class="cls-2" d="M90.76,39.91c0-.64-.06-1.25-.09-1.88v3.76C90.7,41.16,90.76,40.54,90.76,39.91Z"/><path class="cls-2" d="M90.67,41.79V38c0-.63,0-1.26-.1-1.88v7.51C90.63,43,90.64,42.41,90.67,41.79Z"/><path class="cls-2" d="M32.2,36.15a33,33,0,0,1-10.54,1.74,33.21,33.21,0,0,1-10.53-1.74c-.05.62-.06,1.25-.09,1.88v3.76a39.88,39.88,0,0,0,39.82,38v-61A30.34,30.34,0,0,1,32.2,36.15Z"/><path class="cls-1" d="M11.13,36.15a33.21,33.21,0,0,0,10.53,1.74A33,33,0,0,0,32.2,36.15,30.34,30.34,0,0,0,50.86,18.79V0A39.91,39.91,0,0,0,11.13,36.15Z"/><path class="cls-2" d="M50.85,91.77h0v-12A45.83,45.83,0,0,0,40.53,81Z"/><rect class="cls-3" x="50.86" y="117.76" width="39.72" height="18.42"/><path class="cls-4" d="M80.05,37.89a33,33,0,0,1-10.54-1.74A30.29,30.29,0,0,1,50.86,18.79v61A39.9,39.9,0,0,0,90.57,43.66V36.15A33.1,33.1,0,0,1,80.05,37.89Z"/><path class="cls-5" d="M50.86,79.82A45.81,45.81,0,0,1,61.18,81L50.86,91.77h0v26H90.57V43.66A39.9,39.9,0,0,1,50.86,79.82Z"/><path class="cls-5" d="M69.51,36.15a33,33,0,0,0,10.54,1.74,33.1,33.1,0,0,0,10.52-1.74A39.89,39.89,0,0,0,50.86,0V18.79A30.29,30.29,0,0,0,69.51,36.15Z"/><path class="cls-4" d="M50.86,91.77,61.18,81a45.81,45.81,0,0,0-10.32-1.2v12Z"/><path class="cls-6" d="M50.86,91.77h0a.58.58,0,0,1,0,.1v-.1Z"/><path class="cls-3" d="M73.63,85.83c-.26,3.32-2,13.61-12.62,15.37-9.86,1.64-10.16-7.89-10.15-9.26,0,1.37-.31,10.9-10.16,9.26-10.58-1.76-12.36-12-12.62-15.37C11.44,95.09,0,114.14,0,136.18H101.71C101.71,114.14,90.27,95.09,73.63,85.83Z"/><path class="cls-7" d="M50.85,91.77,40.53,81c-.51.12-1,.22-1.52.35a46.93,46.93,0,0,0-10.93,4.46c.26,3.32,2,13.61,12.62,15.37,9.85,1.64,10.16-7.89,10.16-9.26v-.07A.58.58,0,0,0,50.85,91.77Z"/><path class="cls-6" d="M62.7,81.37c-.5-.13-1-.23-1.52-.35L50.86,91.77v.17c0,1.37.29,10.9,10.15,9.26,10.58-1.76,12.36-12,12.62-15.37A46.93,46.93,0,0,0,62.7,81.37Z"/><path class="cls-4" d="M50.86,91.87v0Z"/><path class="cls-7" d="M53,106.42a2.19,2.19,0,1,1-2.19-2.18A2.18,2.18,0,0,1,53,106.42Z"/><path class="cls-7" d="M53,115.58a2.19,2.19,0,1,1-2.19-2.18A2.18,2.18,0,0,1,53,115.58Z"/><path class="cls-7" d="M53,124.74a2.19,2.19,0,1,1-2.19-2.18A2.18,2.18,0,0,1,53,124.74Z"/></g></g></svg>