<svg xmlns="http://www.w3.org/2000/svg" viewBox="0 0 101.71 136.18"><defs><style>.cls-1{fill:#afc01d;}.cls-2{fill:#7ea800;}.cls-3{fill:#fff;}.cls-4{fill:#dcdcdc;}.cls-5{fill:#002738;}</style></defs><title>老板</title><g id="图层_2" data-name="图层 2"><g id="Objects"><path class="cls-1" d="M101.71,136.18c0-29.62-20.62-53.88-46.82-56.17v56.17Z"/><path class="cls-1" d="M0,136.18H46.81V80C20.62,82.3,0,106.56,0,136.18Z"/><path class="cls-2" d="M54.89,80c-1.33-.12-2.67-.19-4-.19s-2.7.07-4,.19v56.17h8.08Z"/><path class="cls-3" d="M27.31,26.07c-9.43,1.68-16.37,13.84-16.37,13.84A39.92,39.92,0,0,0,50.85,79.82V0C49.14,16.71,36.74,24.38,27.31,26.07Z"/><path class="cls-4" d="M90.76,39.91A39.91,39.91,0,0,0,50.85,0V79.82A39.91,39.91,0,0,0,90.76,39.91Z"/><path class="cls-5" d="M27.31,26.07C36.74,24.38,49.14,16.71,50.85,0A39.92,39.92,0,0,0,10.94,39.91S17.88,27.75,27.31,26.07Z"/><path class="cls-5" d="M74.4,26.07C65,24.38,52.57,16.71,50.85,0A39.91,39.91,0,0,1,90.76,39.91S83.83,27.75,74.4,26.07Z"/><path class="cls-5" d="M69.46,62.05c0-8.24-8.33-14.92-18.61-14.92s-18.6,6.68-18.6,14.92"/></g></g></svg>