<svg xmlns="http://www.w3.org/2000/svg" viewBox="0 0 109.36 150.89"><defs><style>.cls-1{fill:#002738;}.cls-2{fill:#fff;}.cls-3{fill:#ff5b45;}.cls-4{fill:#dcdcdc;}.cls-5{fill:#ef3522;}</style></defs><title>水吧</title><g id="图层_2" data-name="图层 2"><g id="Objects"><path class="cls-1" d="M79.38,101.38c0,.09-8,19.76-24.69,26.14C38,121.14,30,101.47,30,101.38,14.39,111,3.83,129.46,3.83,150.65H105.54C105.54,129.46,95,111,79.38,101.38Z"/><path class="cls-2" d="M70.37,150.89l-2-.47c1-4.07,2.5-10.9,2.5-11.92,0-.16,0-.33,0-.51.07-1.24.18-3.1-6.42-5.42a43.89,43.89,0,0,1-13.63-7.71l1.35-1.51a42.52,42.52,0,0,0,13,7.32c7.42,2.6,7.9,5.2,7.77,7.44,0,.14,0,.27,0,.39C72.92,140.06,70.79,149.09,70.37,150.89Z"/><path class="cls-2" d="M65.85,140.78a2.53,2.53,0,1,1-2.53-2.53A2.52,2.52,0,0,1,65.85,140.78Z"/><path class="cls-2" d="M54.68,29.7a19.18,19.18,0,0,1-16.06,8.69,19,19,0,0,1-8.18-1.85A15.23,15.23,0,0,1,15.23,51.27l-.3,0c-.08,1-.16,2.08-.16,3.14a39.9,39.9,0,0,0,39.77,39.9h.14Z"/><path class="cls-2" d="M54.54,94.29A46.8,46.8,0,0,0,30,101.38c0,.09,8,19.76,24.69,26.14V94.3Z"/><path class="cls-2" d="M54.68,94.29h0Z"/><path class="cls-3" d="M38.62,0A19.19,19.19,0,0,0,19.43,19.2a18.45,18.45,0,0,0,.14,2.24,15.22,15.22,0,1,0-4.64,29.81l.3,0A15.23,15.23,0,0,0,30.44,36.54a19,19,0,0,0,8.18,1.85A19.18,19.18,0,0,0,54.68,29.7h0a18.93,18.93,0,0,1-2.56-15.09c.85,0,1.69-.13,2.56-.13V8.69h0A19.18,19.18,0,0,0,38.62,0Z"/><path class="cls-3" d="M54.68,29.7V14.48c-.87,0-1.71.08-2.56.13A18.93,18.93,0,0,0,54.68,29.7Z"/><path class="cls-4" d="M78.93,36.54A19.15,19.15,0,0,1,54.68,29.7h0V94.29h.14a39.91,39.91,0,0,0,39.77-39.9c0-1.06-.08-2.1-.16-3.14l-.3,0A15.21,15.21,0,0,1,78.93,36.54Z"/><path class="cls-4" d="M79.38,101.38a46.87,46.87,0,0,0-24.56-7.09h-.14v33.22h0C71.35,121.14,79.34,101.47,79.38,101.38Z"/><path class="cls-2" d="M54.68,94.29h0Z"/><polygon class="cls-2" points="54.68 8.69 54.68 8.69 54.68 8.69 54.68 8.69"/><polygon class="cls-2" points="54.68 29.7 54.68 29.7 54.68 29.7 54.68 29.7"/><path class="cls-5" d="M94.13,20.8a15.19,15.19,0,0,0-4.34.64,18.45,18.45,0,0,0,.14-2.24A19.19,19.19,0,0,0,54.68,8.69h0v21h0a19.15,19.15,0,0,0,24.25,6.84,15.21,15.21,0,0,0,15.2,14.73l.3,0a15.23,15.23,0,0,0-.3-30.45Z"/></g></g></svg>